<svg width="150" height="23" viewBox="0 0 150 23" fill="none" xmlns="http://www.w3.org/2000/svg">
<mask id="path-1-outside-1_78_204" maskUnits="userSpaceOnUse" x="0" y="0" width="150" height="23" fill="black">
<rect fill="white" width="150" height="23"/>
<path d="M10.33 1.36C12.43 1.36 14.19 1.62 15.61 2.14C17.03 2.66 18.16 3.37 19 4.27C19.84 5.15 20.44 6.17 20.8 7.33C21.18 8.49 21.37 9.71 21.37 10.99C21.37 12.29 21.17 13.53 20.77 14.71C20.37 15.89 19.73 16.94 18.85 17.86C17.99 18.76 16.86 19.48 15.46 20.02C14.06 20.54 12.35 20.8 10.33 20.8H1V1.36H10.33ZM4.42 17.8H10.3C11.78 17.8 13.01 17.61 13.99 17.23C14.97 16.85 15.75 16.34 16.33 15.7C16.91 15.04 17.32 14.31 17.56 13.51C17.8 12.69 17.92 11.85 17.92 10.99C17.92 10.13 17.8 9.31 17.56 8.53C17.32 7.73 16.91 7.02 16.33 6.4C15.75 5.76 14.97 5.26 13.99 4.9C13.01 4.52 11.78 4.33 10.3 4.33H4.42V17.8Z"/>
<path d="M25.2285 20.8V1.36H36.7185C38.1585 1.36 39.4085 1.57 40.4685 1.99C41.5285 2.39 42.3485 3.02 42.9285 3.88C43.5085 4.72 43.7985 5.8 43.7985 7.12C43.7985 8 43.6485 8.76 43.3485 9.4C43.0485 10.02 42.6285 10.53 42.0885 10.93C41.5485 11.33 40.9185 11.64 40.1985 11.86C39.4985 12.08 38.7485 12.22 37.9485 12.28L37.6485 12.07C38.9285 12.09 39.9885 12.21 40.8285 12.43C41.6685 12.63 42.3085 13.02 42.7485 13.6C43.1885 14.16 43.4085 14.99 43.4085 16.09V20.8H40.0185V16.27C40.0185 15.51 39.8785 14.92 39.5985 14.5C39.3385 14.06 38.8785 13.76 38.2185 13.6C37.5785 13.42 36.6585 13.33 35.4585 13.33H28.6485V20.8H25.2285ZM28.6485 10.54H36.7185C37.9185 10.54 38.8285 10.24 39.4485 9.64C40.0685 9.04 40.3785 8.25 40.3785 7.27C40.3785 6.33 40.0685 5.61 39.4485 5.11C38.8285 4.59 37.9185 4.33 36.7185 4.33H28.6485V10.54Z"/>
<path d="M48.5329 1.36H51.9529V20.8H48.5329V1.36Z"/>
<path d="M63.5214 20.8L55.4514 1.36H59.1714L66.1014 18.73H64.9914L71.8914 1.36H75.5514L67.5714 20.8H63.5214Z"/>
<path d="M87.8477 21.16C85.5677 21.16 83.5777 20.75 81.8777 19.93C80.1977 19.11 78.8877 17.95 77.9477 16.45C77.0277 14.95 76.5677 13.16 76.5677 11.08C76.5677 9 77.0277 7.21 77.9477 5.71C78.8877 4.19 80.1977 3.03 81.8777 2.23C83.5777 1.41 85.5677 1 87.8477 1C90.1477 1 92.1377 1.41 93.8177 2.23C95.4977 3.03 96.7977 4.19 97.7177 5.71C98.6577 7.21 99.1277 9 99.1277 11.08C99.1277 13.16 98.6577 14.95 97.7177 16.45C96.7977 17.95 95.4977 19.11 93.8177 19.93C92.1377 20.75 90.1477 21.16 87.8477 21.16ZM87.8477 18.16C89.3677 18.16 90.7077 17.9 91.8677 17.38C93.0277 16.86 93.9377 16.08 94.5977 15.04C95.2777 13.98 95.6177 12.66 95.6177 11.08C95.6177 9.52 95.2777 8.22 94.5977 7.18C93.9377 6.12 93.0277 5.33 91.8677 4.81C90.7077 4.27 89.3677 4 87.8477 4C86.3477 4 85.0077 4.27 83.8277 4.81C82.6477 5.33 81.7177 6.12 81.0377 7.18C80.3577 8.22 80.0177 9.52 80.0177 11.08C80.0177 12.66 80.3577 13.98 81.0377 15.04C81.7177 16.08 82.6477 16.86 83.8277 17.38C85.0077 17.9 86.3477 18.16 87.8477 18.16Z"/>
<path d="M115.701 1.36H119.751L111.291 11.95L111.201 12.04L104.721 20.8H100.641L109.311 9.64L109.401 9.58L115.701 1.36ZM105.021 1.36L111.171 9.61L111.201 9.67L119.811 20.8H115.491L109.161 11.95L109.101 11.89L100.941 1.36H105.021Z"/>
<path d="M126.764 12.52V17.86H140.414V20.8H123.344V1.36H140.384V4.3H126.764V9.7H137.924V12.52H126.764Z"/>
<path d="M148.065 17.56V20.8H144.075V17.56H148.065Z"/>
</mask>
<path d="M10.33 1.36C12.43 1.36 14.19 1.62 15.61 2.14C17.03 2.66 18.16 3.37 19 4.27C19.84 5.15 20.44 6.17 20.8 7.33C21.18 8.49 21.37 9.71 21.37 10.99C21.37 12.29 21.17 13.53 20.77 14.71C20.37 15.89 19.73 16.94 18.85 17.86C17.99 18.76 16.86 19.48 15.46 20.02C14.06 20.54 12.35 20.8 10.33 20.8H1V1.36H10.33ZM4.42 17.8H10.3C11.78 17.8 13.01 17.61 13.99 17.23C14.97 16.85 15.75 16.34 16.33 15.7C16.91 15.04 17.32 14.31 17.56 13.51C17.8 12.69 17.92 11.85 17.92 10.99C17.92 10.13 17.8 9.31 17.56 8.53C17.32 7.73 16.91 7.02 16.33 6.4C15.75 5.76 14.97 5.26 13.99 4.9C13.01 4.52 11.78 4.33 10.3 4.33H4.42V17.8Z" fill="#222222"/>
<path d="M25.2285 20.8V1.36H36.7185C38.1585 1.36 39.4085 1.57 40.4685 1.99C41.5285 2.39 42.3485 3.02 42.9285 3.88C43.5085 4.72 43.7985 5.8 43.7985 7.12C43.7985 8 43.6485 8.76 43.3485 9.4C43.0485 10.02 42.6285 10.53 42.0885 10.93C41.5485 11.33 40.9185 11.64 40.1985 11.86C39.4985 12.08 38.7485 12.22 37.9485 12.28L37.6485 12.07C38.9285 12.09 39.9885 12.21 40.8285 12.43C41.6685 12.63 42.3085 13.02 42.7485 13.6C43.1885 14.16 43.4085 14.99 43.4085 16.09V20.8H40.0185V16.27C40.0185 15.51 39.8785 14.92 39.5985 14.5C39.3385 14.06 38.8785 13.76 38.2185 13.6C37.5785 13.42 36.6585 13.33 35.4585 13.33H28.6485V20.8H25.2285ZM28.6485 10.54H36.7185C37.9185 10.54 38.8285 10.24 39.4485 9.64C40.0685 9.04 40.3785 8.25 40.3785 7.27C40.3785 6.33 40.0685 5.61 39.4485 5.11C38.8285 4.59 37.9185 4.33 36.7185 4.33H28.6485V10.54Z" fill="#222222"/>
<path d="M48.5329 1.36H51.9529V20.8H48.5329V1.36Z" fill="#222222"/>
<path d="M63.5214 20.8L55.4514 1.36H59.1714L66.1014 18.73H64.9914L71.8914 1.36H75.5514L67.5714 20.8H63.5214Z" fill="#222222"/>
<path d="M87.8477 21.16C85.5677 21.16 83.5777 20.75 81.8777 19.93C80.1977 19.11 78.8877 17.95 77.9477 16.45C77.0277 14.95 76.5677 13.16 76.5677 11.08C76.5677 9 77.0277 7.21 77.9477 5.71C78.8877 4.19 80.1977 3.03 81.8777 2.23C83.5777 1.41 85.5677 1 87.8477 1C90.1477 1 92.1377 1.41 93.8177 2.23C95.4977 3.03 96.7977 4.19 97.7177 5.71C98.6577 7.21 99.1277 9 99.1277 11.08C99.1277 13.16 98.6577 14.95 97.7177 16.45C96.7977 17.95 95.4977 19.11 93.8177 19.93C92.1377 20.75 90.1477 21.16 87.8477 21.16ZM87.8477 18.16C89.3677 18.16 90.7077 17.9 91.8677 17.38C93.0277 16.86 93.9377 16.08 94.5977 15.04C95.2777 13.98 95.6177 12.66 95.6177 11.08C95.6177 9.52 95.2777 8.22 94.5977 7.18C93.9377 6.12 93.0277 5.33 91.8677 4.81C90.7077 4.27 89.3677 4 87.8477 4C86.3477 4 85.0077 4.27 83.8277 4.81C82.6477 5.33 81.7177 6.12 81.0377 7.18C80.3577 8.22 80.0177 9.52 80.0177 11.08C80.0177 12.66 80.3577 13.98 81.0377 15.04C81.7177 16.08 82.6477 16.86 83.8277 17.38C85.0077 17.9 86.3477 18.16 87.8477 18.16Z" fill="#222222"/>
<path d="M115.701 1.36H119.751L111.291 11.95L111.201 12.04L104.721 20.8H100.641L109.311 9.64L109.401 9.58L115.701 1.36ZM105.021 1.36L111.171 9.61L111.201 9.67L119.811 20.8H115.491L109.161 11.95L109.101 11.89L100.941 1.36H105.021Z" fill="#222222"/>
<path d="M126.764 12.52V17.86H140.414V20.8H123.344V1.36H140.384V4.3H126.764V9.7H137.924V12.52H126.764Z" fill="#222222"/>
<path d="M148.065 17.56V20.8H144.075V17.56H148.065Z" fill="#222222"/>
<path d="M10.33 1.36C12.43 1.36 14.19 1.62 15.61 2.14C17.03 2.66 18.16 3.37 19 4.27C19.84 5.15 20.44 6.17 20.8 7.33C21.18 8.49 21.37 9.71 21.37 10.99C21.37 12.29 21.17 13.53 20.77 14.71C20.37 15.89 19.73 16.94 18.85 17.86C17.99 18.76 16.86 19.48 15.46 20.02C14.06 20.54 12.35 20.8 10.33 20.8H1V1.36H10.33ZM4.42 17.8H10.3C11.78 17.8 13.01 17.61 13.99 17.23C14.97 16.85 15.75 16.34 16.33 15.7C16.91 15.04 17.32 14.31 17.56 13.51C17.8 12.69 17.92 11.85 17.92 10.99C17.92 10.13 17.8 9.31 17.56 8.53C17.32 7.73 16.91 7.02 16.33 6.4C15.75 5.76 14.97 5.26 13.99 4.9C13.01 4.52 11.78 4.33 10.3 4.33H4.42V17.8Z" stroke="#222222" stroke-width="2" mask="url(#path-1-outside-1_78_204)"/>
<path d="M25.2285 20.8V1.36H36.7185C38.1585 1.36 39.4085 1.57 40.4685 1.99C41.5285 2.39 42.3485 3.02 42.9285 3.88C43.5085 4.72 43.7985 5.8 43.7985 7.12C43.7985 8 43.6485 8.76 43.3485 9.4C43.0485 10.02 42.6285 10.53 42.0885 10.93C41.5485 11.33 40.9185 11.64 40.1985 11.86C39.4985 12.08 38.7485 12.22 37.9485 12.28L37.6485 12.07C38.9285 12.09 39.9885 12.21 40.8285 12.43C41.6685 12.63 42.3085 13.02 42.7485 13.6C43.1885 14.16 43.4085 14.99 43.4085 16.09V20.8H40.0185V16.27C40.0185 15.51 39.8785 14.92 39.5985 14.5C39.3385 14.06 38.8785 13.76 38.2185 13.6C37.5785 13.42 36.6585 13.33 35.4585 13.33H28.6485V20.8H25.2285ZM28.6485 10.54H36.7185C37.9185 10.54 38.8285 10.24 39.4485 9.64C40.0685 9.04 40.3785 8.25 40.3785 7.27C40.3785 6.33 40.0685 5.61 39.4485 5.11C38.8285 4.59 37.9185 4.33 36.7185 4.33H28.6485V10.54Z" stroke="#222222" stroke-width="2" mask="url(#path-1-outside-1_78_204)"/>
<path d="M48.5329 1.36H51.9529V20.8H48.5329V1.36Z" stroke="#222222" stroke-width="2" mask="url(#path-1-outside-1_78_204)"/>
<path d="M63.5214 20.8L55.4514 1.36H59.1714L66.1014 18.73H64.9914L71.8914 1.36H75.5514L67.5714 20.8H63.5214Z" stroke="#222222" stroke-width="2" mask="url(#path-1-outside-1_78_204)"/>
<path d="M87.8477 21.16C85.5677 21.16 83.5777 20.75 81.8777 19.93C80.1977 19.11 78.8877 17.95 77.9477 16.45C77.0277 14.95 76.5677 13.16 76.5677 11.08C76.5677 9 77.0277 7.21 77.9477 5.71C78.8877 4.19 80.1977 3.03 81.8777 2.23C83.5777 1.41 85.5677 1 87.8477 1C90.1477 1 92.1377 1.41 93.8177 2.23C95.4977 3.03 96.7977 4.19 97.7177 5.71C98.6577 7.21 99.1277 9 99.1277 11.08C99.1277 13.16 98.6577 14.95 97.7177 16.45C96.7977 17.95 95.4977 19.11 93.8177 19.93C92.1377 20.75 90.1477 21.16 87.8477 21.16ZM87.8477 18.16C89.3677 18.16 90.7077 17.9 91.8677 17.38C93.0277 16.86 93.9377 16.08 94.5977 15.04C95.2777 13.98 95.6177 12.66 95.6177 11.08C95.6177 9.52 95.2777 8.22 94.5977 7.18C93.9377 6.12 93.0277 5.33 91.8677 4.81C90.7077 4.27 89.3677 4 87.8477 4C86.3477 4 85.0077 4.27 83.8277 4.81C82.6477 5.33 81.7177 6.12 81.0377 7.18C80.3577 8.22 80.0177 9.52 80.0177 11.08C80.0177 12.66 80.3577 13.98 81.0377 15.04C81.7177 16.08 82.6477 16.86 83.8277 17.38C85.0077 17.9 86.3477 18.16 87.8477 18.16Z" stroke="#222222" stroke-width="2" mask="url(#path-1-outside-1_78_204)"/>
<path d="M115.701 1.36H119.751L111.291 11.95L111.201 12.04L104.721 20.8H100.641L109.311 9.64L109.401 9.58L115.701 1.36ZM105.021 1.36L111.171 9.61L111.201 9.67L119.811 20.8H115.491L109.161 11.95L109.101 11.89L100.941 1.36H105.021Z" stroke="#222222" stroke-width="2" mask="url(#path-1-outside-1_78_204)"/>
<path d="M126.764 12.52V17.86H140.414V20.8H123.344V1.36H140.384V4.3H126.764V9.7H137.924V12.52H126.764Z" stroke="#222222" stroke-width="2" mask="url(#path-1-outside-1_78_204)"/>
<path d="M148.065 17.56V20.8H144.075V17.56H148.065Z" stroke="#222222" stroke-width="2" mask="url(#path-1-outside-1_78_204)"/>
</svg>
