<svg width="23" height="23" viewBox="0 0 23 23" fill="none" xmlns="http://www.w3.org/2000/svg">
<path d="M21.7425 9.6025L20.3942 8.52366C20.3888 8.51934 20.3834 8.51395 20.378 8.50964L21.6333 8.25844C21.8011 8.22502 21.9219 8.07767 21.9219 7.90625V6.82812C21.9219 6.62975 21.7609 6.46875 21.5625 6.46875H19.7656C19.5672 6.46875 19.4062 6.62975 19.4062 6.82812V7.45775C19.398 7.44661 19.3897 7.43547 19.3815 7.42433C19.3588 7.3618 19.3186 7.31077 19.2675 7.27016C19.0652 6.98373 18.892 6.69695 18.7791 6.44898L18.1718 5.11319C17.7847 4.26111 16.7483 3.59375 15.8125 3.59375H7.1875C6.25169 3.59375 5.21525 4.26111 4.8282 5.11319L4.22122 6.44863C4.10838 6.69659 3.93516 6.98373 3.73283 7.27016C3.6818 7.31077 3.64191 7.3618 3.61891 7.42433C3.61064 7.43547 3.60273 7.44625 3.59411 7.45775V6.82812C3.59411 6.62975 3.43311 6.46875 3.23473 6.46875H1.4375C1.23913 6.46875 1.07812 6.62975 1.07812 6.82812V7.90625C1.07812 8.07767 1.19887 8.22502 1.36706 8.25844L2.62236 8.50964C2.61697 8.51395 2.61158 8.51934 2.60619 8.52366L1.25745 9.6025C0.552359 10.1667 0 11.316 0 12.2188V18.3281C0 18.9225 0.483719 19.4062 1.07812 19.4062H3.95312C4.54753 19.4062 5.03125 18.9225 5.03125 18.3281V17.6094H17.9688V18.3281C17.9688 18.9225 18.4525 19.4062 19.0469 19.4062H21.9219C22.5163 19.4062 23 18.9225 23 18.3281V12.2188C23 11.316 22.4476 10.1667 21.7425 9.6025ZM18.4769 16.8906L17.6529 16.0666C17.3032 15.7169 16.6664 15.4531 16.1719 15.4531H6.64844C6.15394 15.4531 5.51713 15.7169 5.16745 16.0666L4.34341 16.8906H1.79688C1.20247 16.8906 0.71875 16.4069 0.71875 15.8125V14.0156H1.07812V14.375C1.07812 15.1678 1.72284 15.8125 2.51562 15.8125H3.59375C3.79212 15.8125 3.95312 15.6515 3.95312 15.4531C3.95312 15.2548 3.79212 15.0938 3.59375 15.0938H2.51562C2.11923 15.0938 1.79688 14.7714 1.79688 14.375V14.0156H2.51562C2.81391 14.0156 3.2775 14.2075 3.48845 14.4185C3.55853 14.4886 3.65053 14.5238 3.74253 14.5238C3.83453 14.5238 3.92653 14.4886 3.99661 14.4185C4.13713 14.278 4.13713 14.0508 3.99661 13.9103C3.64694 13.5607 3.01048 13.2969 2.51562 13.2969H0.71875V12.2188C0.71875 12.0919 0.738875 11.955 0.767266 11.8152C0.997266 12.0552 1.33184 12.2188 1.79688 12.2188H4.67188C4.76711 12.2188 4.85839 12.181 4.92595 12.1135L5.39062 11.6488L5.8553 12.1135C5.9225 12.181 6.01414 12.2188 6.10938 12.2188H10.2731L11.2459 13.1916C11.316 13.2617 11.408 13.2969 11.5 13.2969C11.592 13.2969 11.684 13.2617 11.7541 13.1916L12.7269 12.2188H16.8906C16.9859 12.2188 17.0775 12.181 17.1447 12.1135L17.6094 11.6488L18.074 12.1135C18.1413 12.181 18.2329 12.2188 18.3281 12.2188H21.2031C21.6682 12.2188 22.0027 12.0552 22.2327 11.8152C22.2611 11.955 22.2812 12.0919 22.2812 12.2188V13.2969H20.4844C19.9899 13.2969 19.3531 13.5607 19.0034 13.9103C18.8629 14.0508 18.8629 14.278 19.0034 14.4185C19.0735 14.4886 19.1655 14.5238 19.2575 14.5238C19.3495 14.5238 19.4415 14.4886 19.5115 14.4185C19.7225 14.2075 20.1861 14.0156 20.4844 14.0156H21.2031V14.375C21.2031 14.7714 20.8808 15.0938 20.4844 15.0938H19.4062C19.2079 15.0938 19.0469 15.2548 19.0469 15.4531C19.0469 15.6515 19.2079 15.8125 19.4062 15.8125H20.4844C21.2772 15.8125 21.9219 15.1678 21.9219 14.375V14.0156H22.2812V15.8125C22.2812 16.4069 21.7975 16.8906 21.2031 16.8906H18.4769ZM17.4606 16.8906H5.35972L5.67561 16.5747C5.88656 16.3638 6.35016 16.1719 6.64844 16.1719H16.1719C16.4702 16.1719 16.9338 16.3638 17.1447 16.5747L17.4606 16.8906ZM4.15438 7.90625H18.8456C19.1939 8.36661 19.5917 8.80217 19.945 9.085L20.3773 9.43072L17.8354 10.4474C17.8351 10.4474 17.8351 10.4478 17.8347 10.4478C17.7912 10.4654 17.7502 10.4916 17.715 10.5268L17.3557 10.8862L16.7418 11.5H12.5781C12.4829 11.5 12.3912 11.5377 12.324 11.6053L11.5 12.4293L10.676 11.6053C10.6088 11.5377 10.5171 11.5 10.4219 11.5H6.25816L5.6447 10.8865L5.28533 10.5272C5.25011 10.492 5.20914 10.4657 5.16566 10.4481C5.1653 10.4481 5.1653 10.4478 5.16494 10.4478L2.62308 9.43108L3.05541 9.08536C3.40831 8.80217 3.80614 8.36661 4.15438 7.90625ZM21.9007 10.9318C21.8284 11.3074 21.5956 11.5 21.2031 11.5H18.4769L18.1175 11.1406L18.1707 11.0874L21.0224 9.94678L21.2933 10.1638C21.5212 10.346 21.7314 10.6231 21.9007 10.9318ZM20.125 7.1875H21.2031V7.61156L20.125 7.82719V7.1875ZM4.87492 6.74619L5.48191 5.41075C5.75287 4.81527 6.5338 4.3125 7.1875 4.3125H15.8125C16.4662 4.3125 17.2471 4.81527 17.5177 5.41039L18.1251 6.74619C18.1883 6.88491 18.2706 7.03477 18.3608 7.1875H4.63917C4.72938 7.03477 4.81203 6.88491 4.87492 6.74619ZM1.79688 7.1875H2.875V7.82719L1.79688 7.61156V7.1875ZM1.70631 10.1638L1.97728 9.94678L4.82928 11.0874L4.88247 11.1406L4.52309 11.5H1.79688C1.40444 11.5 1.17156 11.3074 1.09933 10.9318C1.26859 10.6231 1.47847 10.346 1.70631 10.1638ZM3.95312 18.6875H1.07812C0.880109 18.6875 0.71875 18.5261 0.71875 18.3281V17.241C1.01991 17.4689 1.39078 17.6094 1.79688 17.6094H4.3125V18.3281C4.3125 18.5261 4.15114 18.6875 3.95312 18.6875ZM21.9219 18.6875H19.0469C18.8489 18.6875 18.6875 18.5261 18.6875 18.3281V17.6094H21.2031C21.6092 17.6094 21.9801 17.4689 22.2812 17.241V18.3281C22.2812 18.5261 22.1199 18.6875 21.9219 18.6875Z" fill="#FD3B3B"/>
</svg>
