<svg width="23" height="23" viewBox="0 0 23 23" fill="none" xmlns="http://www.w3.org/2000/svg">
<g clip-path="url(#clip0_93_2182)">
<path d="M19.6318 3.36824C17.4597 1.19618 14.5718 0 11.5 0C9.16271 0 6.91235 0.697861 4.99226 2.01807C4.78782 2.15863 4.73607 2.43831 4.87663 2.64275C5.01723 2.84715 5.29683 2.8989 5.50131 2.75838C7.27096 1.54158 9.34528 0.898438 11.5 0.898438C17.3457 0.898438 22.1016 5.65427 22.1016 11.5C22.1016 17.3457 17.3457 22.1016 11.5 22.1016C5.65427 22.1016 0.898438 17.3457 0.898438 11.5C0.898438 9.34501 1.54154 7.27079 2.75816 5.50163C2.89872 5.29719 2.84697 5.0175 2.64257 4.87694C2.43813 4.73643 2.1585 4.78809 2.01789 4.99253C0.697771 6.91217 0 9.16245 0 11.5C0 14.5718 1.19618 17.4597 3.36824 19.6318C5.54035 21.8038 8.42824 23 11.5 23C14.5718 23 17.4597 21.8038 19.6318 19.6318C21.8038 17.4597 23 14.5718 23 11.5C23 8.42824 21.8038 5.54035 19.6318 3.36824Z" fill="#FD3B3B"/>
<path d="M11.5 20.7539C16.6026 20.7539 20.7539 16.6026 20.7539 11.5C20.7539 10.4397 20.5741 9.42075 20.2444 8.47132C20.2434 8.46885 20.2427 8.46629 20.2417 8.46386C18.9823 4.84806 15.5396 2.24609 11.5 2.24609C6.39741 2.24609 2.24609 6.39737 2.24609 11.5C2.24609 16.6026 6.39741 20.7539 11.5 20.7539ZM19.8555 11.5C19.8555 11.715 19.8473 11.9281 19.8313 12.139C19.3597 12.1636 18.9 12.2336 18.4562 12.3442C18.602 11.1141 18.4186 9.85213 17.9308 8.71749C18.4487 8.80599 18.9647 8.90518 19.4782 9.01497C19.7233 9.80029 19.8555 10.635 19.8555 11.5ZM16.8495 8.54854C17.5323 9.78695 17.7655 11.2602 17.4999 12.6546C15.4494 13.4821 13.8595 15.2176 13.2307 17.3603C12.1064 17.6912 10.8935 17.6912 9.76925 17.3603C9.14052 15.2176 7.55056 13.4821 5.50005 12.6546C5.23448 11.2604 5.4678 9.78681 6.15048 8.54859C7.92197 8.29792 9.71202 8.17062 11.5 8.17062C13.2879 8.17062 15.0779 8.29788 16.8495 8.54854ZM4.54376 12.3442C4.09993 12.2337 3.64029 12.1636 3.16874 12.139C3.15271 11.9281 3.14453 11.715 3.14453 11.5C3.14453 10.635 3.27669 9.80029 3.52183 9.01497C4.03529 8.90518 4.55121 8.80599 5.06921 8.71749C4.58154 9.85209 4.39799 11.1142 4.54376 12.3442ZM3.28873 13.0472C6.57158 13.3047 9.16406 16.0584 9.16406 19.4062C9.16406 19.4448 9.16334 19.4836 9.16263 19.5223C6.17303 18.6498 3.87168 16.148 3.28873 13.0472ZM10.055 19.73C10.0597 19.6219 10.0625 19.5137 10.0625 19.4062C10.0625 19.045 10.0356 18.69 9.98456 18.3427C10.4823 18.4521 10.991 18.507 11.5 18.507C12.0088 18.507 12.5177 18.4521 13.0154 18.3427C12.9644 18.69 12.9375 19.045 12.9375 19.4062C12.9375 19.5138 12.9403 19.622 12.945 19.7301C12.4755 19.8123 11.9927 19.8555 11.5 19.8555C11.0073 19.8555 10.5245 19.8123 10.055 19.73ZM13.8374 19.5223C13.8367 19.4836 13.8359 19.4448 13.8359 19.4062C13.8359 16.0584 16.4285 13.3048 19.7113 13.0472C19.1283 16.148 16.827 18.6498 13.8374 19.5223ZM11.5 3.14453C14.8655 3.14453 17.7722 5.14481 19.0948 8.01873C16.597 7.52369 14.0464 7.27222 11.5 7.27222C8.95351 7.27222 6.40285 7.52374 3.90519 8.01878C5.22783 5.14477 8.13454 3.14453 11.5 3.14453Z" fill="#FD3B3B"/>
<path d="M9.25391 11.5C9.25391 12.7385 10.2615 13.7461 11.5 13.7461C12.7385 13.7461 13.7461 12.7385 13.7461 11.5C13.7461 10.2615 12.7385 9.25391 11.5 9.25391C10.2615 9.25391 9.25391 10.2615 9.25391 11.5ZM11.5 10.1523C12.2431 10.1523 12.8477 10.7569 12.8477 11.5C12.8477 12.2431 12.2431 12.8477 11.5 12.8477C10.7569 12.8477 10.1523 12.2431 10.1523 11.5C10.1523 10.7569 10.7569 10.1523 11.5 10.1523Z" fill="#FD3B3B"/>
<path d="M3.68554 4.13509C3.80058 4.13509 3.91563 4.09115 4.00336 4.00342C4.17878 3.828 4.17878 3.54356 4.00336 3.36814C3.82794 3.19272 3.54354 3.19272 3.36807 3.36814L3.36785 3.36836C3.19243 3.54378 3.19252 3.82809 3.36794 4.00351C3.45563 4.09129 3.57058 4.13509 3.68554 4.13509Z" fill="#FD3B3B"/>
</g>
<defs>
<clipPath id="clip0_93_2182">
<rect width="23" height="23" fill="white"/>
</clipPath>
</defs>
</svg>
