<svg width="23" height="23" viewBox="0 0 23 23" fill="none" xmlns="http://www.w3.org/2000/svg">
<g clip-path="url(#clip0_93_2160)">
<path d="M22.5099 6.17518L18.4828 2.14813C17.8968 1.56203 16.9872 1.49366 16.3201 1.98556L14.1447 3.58955C14.0657 3.64777 14.016 3.73757 14.0087 3.83541C14.0013 3.93325 14.037 4.02943 14.1064 4.09883L14.6306 4.62307L12.3275 6.92619H10.6724L8.36918 4.62294L8.89351 4.09856C8.96292 4.02916 8.99854 3.93298 8.99122 3.83514C8.98385 3.7373 8.93417 3.6475 8.8552 3.58928L6.67988 1.98565C6.01301 1.49361 5.10343 1.56198 4.51715 2.14831L3.87947 2.78603C3.74794 2.91756 3.74794 3.13085 3.87947 3.26238C4.01101 3.39391 4.2243 3.39391 4.35583 3.26238L4.99355 2.62466C5.34237 2.27584 5.88332 2.2351 6.28007 2.52781L7.00386 3.0614L1.40323 8.66199L0.869639 7.93843C0.577151 7.54118 0.61785 6.99987 0.966402 6.65131L3.40325 4.21451C3.53479 4.08297 3.53479 3.86973 3.40325 3.73815C3.27177 3.60662 3.05848 3.60662 2.9269 3.73815L0.490047 6.17496C-0.0957843 6.76079 -0.164291 7.67042 0.327338 8.33801L1.93156 10.5135C1.98978 10.5924 2.07957 10.6421 2.17742 10.6494C2.18586 10.6501 2.19426 10.6504 2.20266 10.6504C2.29161 10.6504 2.37741 10.6151 2.44084 10.5517L2.96513 10.0274L3.35626 10.4185C2.52988 11.13 2.04638 12.1684 2.04638 13.2683C2.04638 15.0743 3.33533 16.6165 5.08402 16.9581C5.27417 17.9658 5.9919 18.7891 6.93863 19.1287V20.3386C6.93863 20.8919 7.38857 21.3421 7.94166 21.3421C8.37682 21.3421 8.74806 21.0635 8.88678 20.6755H9.36902C9.50769 21.0635 9.8787 21.3421 10.3137 21.3421C10.7488 21.3421 11.1201 21.0635 11.2588 20.6755H11.7412C11.8799 21.0634 12.251 21.3419 12.6861 21.3419C13.1211 21.3419 13.4922 21.0634 13.6309 20.6755H14.1133C14.252 21.0634 14.6232 21.3419 15.0582 21.3419C15.6114 21.3419 16.0614 20.8919 16.0614 20.3387V17.6906C16.5897 17.6177 17.0645 17.3759 17.4298 17.0214C18.1032 16.9792 18.7502 16.7573 19.3089 16.3757C19.4625 16.2708 19.502 16.0612 19.3971 15.9076C19.2922 15.754 19.0826 15.7145 18.929 15.8194C18.6331 16.0215 18.3068 16.1686 17.9642 16.2571C18.0723 16.0143 18.1421 15.7511 18.1658 15.4747C19.0356 15.0924 19.6052 14.2336 19.6052 13.2683C19.6052 12.5205 19.2617 11.8284 18.6868 11.3755L19.1658 10.8964C19.868 11.4809 20.2799 12.3485 20.2799 13.2682C20.2799 13.8703 20.1057 14.4539 19.776 14.9562C19.674 15.1117 19.7173 15.3205 19.8728 15.4226C19.9298 15.46 19.9939 15.4779 20.0573 15.4779C20.167 15.4779 20.2745 15.4244 20.3392 15.3258C20.7411 14.7135 20.9536 14.002 20.9536 13.2683C20.9536 12.1682 20.47 11.1298 19.6436 10.4188L20.0349 10.0274L20.5592 10.5517C20.6226 10.6151 20.7084 10.6503 20.7974 10.6503C20.8058 10.6503 20.8142 10.65 20.8226 10.6494C20.9205 10.642 21.0103 10.5924 21.0685 10.5134L22.6725 8.33805C23.1644 7.67082 23.096 6.76124 22.5099 6.17518ZM17.0792 9.28623C17.0792 9.20168 17.1122 9.12217 17.172 9.06238L18.121 8.11335L18.5686 8.561L17.6196 9.51003C17.5598 9.56982 17.4804 9.60275 17.3958 9.60275C17.3113 9.60275 17.2318 9.56982 17.172 9.51003C17.1122 9.45028 17.0792 9.37077 17.0792 9.28623ZM16.2454 6.2378L16.5447 6.53708L15.5956 7.4861C15.5358 7.54589 15.4564 7.57882 15.3718 7.57882C15.2872 7.57882 15.2078 7.54589 15.1479 7.4861C15.0245 7.3627 15.0245 7.16185 15.1479 7.03845L16.097 6.08943L16.2454 6.2378ZM15.107 5.09943L15.6207 5.61307L14.6716 6.5621C14.2856 6.94816 14.2856 7.57635 14.6716 7.96241C14.8586 8.14942 15.1073 8.25243 15.3718 8.25243C15.6363 8.25243 15.8849 8.14942 16.072 7.96241L17.021 7.01339L17.6446 7.63704L16.6956 8.58607C16.5086 8.77308 16.4056 9.02177 16.4056 9.28623C16.4056 9.55068 16.5086 9.79937 16.6956 9.98639C16.8826 10.1734 17.1313 10.2764 17.3958 10.2764C17.6603 10.2764 17.9089 10.1734 18.0959 9.98639L19.045 9.03736L19.5586 9.551L17.395 11.7146L12.9434 7.26306L15.107 5.09943ZM13.6892 17.7145H14.055V20.0018H13.6892V17.7145ZM11.3771 17.0409L13.2758 15.1769C13.2748 15.2057 13.2736 15.2344 13.2736 15.2634C13.2736 15.9627 13.5684 16.594 14.0397 17.0409H11.3771ZM8.94508 19.1012C9.07154 19.052 9.19364 18.9941 9.31071 18.9282V20.0018H8.94508V19.1012ZM11.3172 17.7145H11.6829V20.0018H11.3172V17.7145ZM10.7645 16.6983C10.7731 16.6081 10.7779 16.5169 10.7779 16.4246C10.7779 14.8409 9.48941 13.5524 7.90572 13.5524C7.84368 13.5524 7.78227 13.5551 7.72118 13.559L9.59906 11.7227C9.66932 12.7103 10.4948 13.4926 11.5 13.4926C12.5512 13.4926 13.4064 12.6374 13.4064 11.5862C13.4064 11.5412 13.4042 11.4968 13.4011 11.4526L15.3331 12.8441C14.8143 12.9278 14.3494 13.1744 13.9933 13.5302L13.9937 13.5281L10.7645 16.6983ZM4.794 11.8563L5.30957 12.3719L5.94109 14.3323C5.74357 14.5179 5.57219 14.7308 5.43324 14.9654C4.65268 14.7921 4.06819 14.0849 4.06819 13.2683C4.06824 12.7027 4.34119 12.1808 4.794 11.8563ZM11.5 10.3535C12.1797 10.3535 12.7327 10.9065 12.7327 11.5862C12.7327 12.266 12.1797 12.819 11.5 12.819C10.8203 12.819 10.2673 12.266 10.2673 11.5862C10.2673 10.9065 10.8203 10.3535 11.5 10.3535ZM16.7636 13.0443C16.7636 13.0443 12.6916 10.098 12.6441 10.0623C12.3252 9.82228 11.9289 9.67988 11.5 9.67988C11.004 9.67988 10.5517 9.87049 10.2122 10.1821L6.48546 13.8251L5.98884 12.2835L10.6725 7.59985H12.3275L17.0111 12.2834L16.7659 13.0453C16.7651 13.045 16.7643 13.0446 16.7636 13.0443ZM4.87904 8.1134L5.82807 9.06242C5.88786 9.12222 5.92079 9.20168 5.92079 9.28623C5.92079 9.37077 5.88786 9.45028 5.82807 9.51003C5.76827 9.56982 5.68881 9.60275 5.60422 9.60275C5.51967 9.60275 5.44021 9.56982 5.38042 9.51003L4.43139 8.561L4.87904 8.1134ZM2.24134 9.79852L1.80757 9.21031L7.55223 3.46565L8.1403 3.89915L2.24134 9.79852ZM3.95508 9.0374L4.90406 9.98639C5.09107 10.1734 5.33972 10.2764 5.60422 10.2764C5.86872 10.2764 6.11736 10.1734 6.30438 9.98639C6.49139 9.79937 6.59439 9.55068 6.59439 9.28623C6.59439 9.02177 6.49139 8.77308 6.30438 8.58607L5.35535 7.63704L5.36317 7.62923L5.979 7.01339L6.92803 7.96241C7.11504 8.14942 7.36369 8.25243 7.62819 8.25243C7.89269 8.25243 8.14134 8.14942 8.32835 7.96241C8.71441 7.57635 8.71441 6.94816 8.32835 6.5621L7.37932 5.61307L7.89296 5.09943L10.0566 7.26306L5.60498 11.7146L3.44144 9.55109L3.95508 9.0374ZM6.90301 6.08943L7.85204 7.03845C7.97544 7.16185 7.97544 7.3627 7.85204 7.4861C7.79225 7.54589 7.71273 7.57882 7.62819 7.57882C7.54365 7.57882 7.46413 7.54589 7.40434 7.4861L6.45536 6.53708L6.90301 6.08943ZM2.72003 13.2683C2.72003 12.3488 3.13188 11.4811 3.83397 10.8962L4.31311 11.3754C3.73806 11.8283 3.39454 12.5205 3.39454 13.2683C3.39454 13.8729 3.62018 14.4516 4.02992 14.8979C4.33737 15.2327 4.72779 15.4709 5.15724 15.591C5.09251 15.804 5.05194 16.0273 5.03869 16.2579C3.69305 15.9128 2.72003 14.6901 2.72003 13.2683ZM5.70722 16.4246C5.70722 15.2123 6.69349 14.2261 7.90572 14.2261C9.11794 14.2261 10.1042 15.2123 10.1042 16.4246C10.1042 17.6368 9.11794 18.623 7.90572 18.623C6.69349 18.623 5.70722 17.6368 5.70722 16.4246ZM7.94166 20.6684C7.76008 20.6684 7.61229 20.5205 7.61229 20.3386V19.2818C7.70878 19.2917 7.80662 19.2967 7.90567 19.2967C8.02966 19.2967 8.15153 19.2879 8.27143 19.2726V20.3386C8.27143 20.5205 8.1235 20.6684 7.94166 20.6684ZM10.3137 20.6684C10.1321 20.6684 9.98436 20.5205 9.98436 20.3386V18.4082L10.6435 17.7611V20.3386C10.6435 20.5205 10.4956 20.6684 10.3137 20.6684ZM12.6861 20.6683C12.5044 20.6683 12.3565 20.5204 12.3565 20.3387V17.7145H13.0156V20.3387C13.0156 20.5204 12.8678 20.6683 12.6861 20.6683ZM15.0582 20.6683C14.8765 20.6683 14.7287 20.5204 14.7287 20.3387V17.7145H15.3877V20.3387C15.3877 20.5204 15.2399 20.6683 15.0582 20.6683ZM15.7246 17.0407C14.7446 17.0407 13.9473 16.2434 13.9473 15.2634C13.9473 14.2834 14.7445 13.4861 15.7246 13.4861C16.7045 13.4861 17.5019 14.2834 17.5019 15.2634C17.5019 16.2434 16.7045 17.0407 15.7246 17.0407ZM18.9315 13.2683C18.9315 13.877 18.6172 14.4271 18.1186 14.7397C18.0059 14.2243 17.7307 13.7692 17.3494 13.4308L17.6903 12.372L18.2059 11.8564C18.6586 12.1808 18.9315 12.7026 18.9315 13.2683ZM20.7586 9.79839L14.8596 3.89938L15.4478 3.4657L21.1923 9.21022L20.7586 9.79839ZM22.1303 7.93816L21.5966 8.66185L15.9961 3.06135L16.7198 2.52772C17.1168 2.23505 17.6578 2.27575 18.0065 2.62444L22.0335 6.65149C22.3822 7.00018 22.4229 7.54131 22.1303 7.93816Z" fill="#FD3B3B"/>
<path d="M8.92241 16.4246C8.92241 15.864 8.46637 15.408 7.90579 15.408C7.34521 15.408 6.88916 15.864 6.88916 16.4246C6.88916 16.9852 7.34521 17.4412 7.90579 17.4412C8.46637 17.4412 8.92241 16.9852 8.92241 16.4246ZM7.56281 16.4246C7.56281 16.2355 7.71667 16.0816 7.90579 16.0816C8.09491 16.0816 8.24877 16.2355 8.24877 16.4246C8.24877 16.6137 8.09491 16.7676 7.90579 16.7676C7.71667 16.7676 7.56281 16.6137 7.56281 16.4246Z" fill="#FD3B3B"/>
<path d="M15.7246 14.2468C15.1641 14.2468 14.708 14.7029 14.708 15.2635C14.708 15.824 15.1641 16.2801 15.7246 16.2801C16.2852 16.2801 16.7413 15.824 16.7413 15.2635C16.7413 14.7029 16.2852 14.2468 15.7246 14.2468ZM15.7246 15.6064C15.5355 15.6064 15.3817 15.4526 15.3817 15.2635C15.3817 15.0743 15.5355 14.9205 15.7246 14.9205C15.9138 14.9205 16.0676 15.0743 16.0676 15.2635C16.0676 15.4526 15.9138 15.6064 15.7246 15.6064Z" fill="#FD3B3B"/>
</g>
<defs>
<clipPath id="clip0_93_2160">
<rect width="23" height="23" fill="white"/>
</clipPath>
</defs>
</svg>
