<svg width="23" height="24" viewBox="0 0 23 24" fill="none" xmlns="http://www.w3.org/2000/svg">
<path d="M16.0971 23.3513H6.90332V17.7957H16.0971V23.3513ZM7.52494 22.7027H15.4755V18.4443H7.52494V22.7027Z" fill="#FD3B3B"/>
<path d="M16.0099 23.3514H15.7737L15.7986 22.7027C18.6612 22.8227 19.0745 20.3514 19.0901 20.2476V20.2119C19.6744 17.9417 18.1949 17.4811 18.1328 17.4649C17.163 17.1406 16.013 18.3373 16.0037 18.3503L15.5562 17.8963C15.6152 17.8346 16.9735 16.3979 18.3068 16.8422C18.818 17.0126 19.2509 17.3741 19.5221 17.8573C19.892 18.506 19.951 19.359 19.6962 20.3676C19.6526 20.64 19.0776 23.3514 16.0099 23.3514Z" fill="#FD3B3B"/>
<path d="M6.98992 23.3513C3.92222 23.3513 3.34722 20.6399 3.29749 20.3643C3.04262 19.3556 3.10168 18.5124 3.47154 17.854C3.74837 17.3627 4.19217 16.998 4.71479 16.8324C6.03262 16.3913 7.38776 17.8313 7.44681 17.8929L6.99925 18.347C6.99925 18.347 5.85235 17.134 4.88573 17.4551C4.80803 17.4778 3.33168 17.9253 3.91289 20.2086V20.2443C3.92843 20.348 4.3387 22.8194 7.20438 22.6994L7.22925 23.348L6.98992 23.3513Z" fill="#FD3B3B"/>
<path d="M17.8251 17.1891C17.7847 17.0269 16.846 13.1805 17.0978 9.83991V9.80099C17.1505 9.47852 17.1417 9.14834 17.0718 8.82943C17.0019 8.51052 16.8724 8.20915 16.6906 7.94262C16.2803 7.43343 15.5779 7.16748 14.6082 7.16748H8.39195C7.41601 7.16748 6.71357 7.43343 6.3002 7.95559C6.12056 8.22307 5.99323 8.52488 5.9255 8.84377C5.85776 9.16265 5.85096 9.49234 5.90547 9.81397V9.85289C6.15722 13.1934 5.21857 17.0399 5.17817 17.2021L4.5752 17.0399C4.5752 17.001 5.52317 13.148 5.28695 9.90478C5.21906 9.49218 5.23169 9.06953 5.32409 8.66215C5.41648 8.25477 5.58674 7.87104 5.82465 7.53397C6.36236 6.85289 7.22952 6.50586 8.40128 6.50586H14.6082C15.7799 6.50586 16.6471 6.85289 17.1848 7.53397C17.4233 7.87315 17.5933 8.25928 17.6847 8.66902C17.776 9.07875 17.7868 9.50356 17.7163 9.91775C17.4801 13.161 18.4156 17.001 18.428 17.0529L17.8251 17.1891Z" fill="#FD3B3B"/>
<path d="M14.9404 18.4443H8.05908V6.84326H8.6807V17.7957H14.3188V6.84326H14.9404V18.4443Z" fill="#FD3B3B"/>
<path d="M8.37012 11.3254H14.6298V11.9741H8.37012V11.3254Z" fill="#FD3B3B"/>
<path d="M13.2624 7.16748H9.73779V5.13721H13.2624V7.16748ZM10.3594 6.51883H12.6408V5.78586H10.3594V6.51883Z" fill="#FD3B3B"/>
<path d="M13.8806 5.786H9.11896C8.96136 5.78605 8.80551 5.75145 8.66158 5.68447C8.51764 5.61748 8.38884 5.5196 8.28358 5.39721C8.17831 5.27482 8.09893 5.13066 8.05061 4.97413C8.00229 4.81759 7.98612 4.65219 8.00315 4.4887L8.27045 1.69627C8.299 1.40785 8.42938 1.14084 8.6362 0.947204C8.84303 0.753568 9.1115 0.647163 9.38936 0.648698H13.6102C13.8895 0.647395 14.1592 0.755157 14.3662 0.950803C14.5733 1.14645 14.7027 1.41583 14.7291 1.706L14.9964 4.49518C15.0134 4.65868 14.9972 4.82408 14.9489 4.98061C14.9006 5.13715 14.8212 5.28131 14.716 5.4037C14.6107 5.52609 14.4819 5.62397 14.338 5.69095C14.194 5.75794 14.0382 5.79253 13.8806 5.79248V5.786ZM9.38936 1.29735C9.26483 1.2967 9.14454 1.34454 9.05201 1.4315C8.95947 1.51847 8.90133 1.63831 8.88896 1.76762L8.62166 4.56005C8.61374 4.63296 8.62073 4.70678 8.64216 4.77667C8.66359 4.84655 8.69897 4.91089 8.74599 4.96546C8.79311 5.01982 8.85067 5.06322 8.91493 5.09284C8.97919 5.12245 9.04871 5.13762 9.11896 5.13735H13.8806C13.9508 5.13762 14.0203 5.12245 14.0846 5.09284C14.1489 5.06322 14.2064 5.01982 14.2536 4.96546C14.3006 4.91089 14.336 4.84655 14.3574 4.77667C14.3788 4.70678 14.3858 4.63296 14.3779 4.56005L14.1106 1.77086C14.0989 1.64097 14.0411 1.52034 13.9485 1.4327C13.8559 1.34507 13.7352 1.29678 13.6102 1.29735H9.38936Z" fill="#FD3B3B"/>
</svg>
