<svg width="23" height="16" viewBox="0 0 23 16" fill="none" xmlns="http://www.w3.org/2000/svg">
<path d="M12.1517 0.01827C8.41064 -0.192587 4.80127 1.43172 2.47812 4.37163C0.154964 7.31155 -0.590856 11.1987 0.479219 14.7896C0.579237 15.1125 0.877621 15.3327 1.2156 15.3332H21.7849C22.1229 15.3326 22.4212 15.1122 22.5209 14.7893C23.5272 11.4181 22.935 7.77188 20.9137 4.89245C18.8923 2.01302 15.6642 0.217228 12.1517 0.01827ZM21.7849 14.5665L1.21369 14.5692C0.24449 11.3215 0.866154 7.80689 2.89058 5.08871C4.915 2.37053 8.10432 0.768198 11.4935 0.766537C11.698 0.766537 11.9033 0.772159 12.1096 0.783403C15.3873 0.968485 18.4 2.64406 20.2862 5.33111C22.1724 8.01816 22.7246 11.4209 21.7849 14.5665Z" fill="#FD3B3B"/>
<path d="M11.5001 1.5332C8.5078 1.53524 5.67455 2.88065 3.78189 5.19829C1.88922 7.51593 1.13714 10.5609 1.73311 13.4932C1.77964 13.696 1.97952 13.8247 2.18343 13.7831C2.38733 13.7414 2.52077 13.5447 2.48406 13.3399C2.38734 12.8597 2.32901 12.3726 2.30964 11.8832H3.45006C3.66177 11.8832 3.83339 11.7116 3.83339 11.4999C3.83339 11.2882 3.66177 11.1165 3.45006 11.1165H2.30964C2.36461 9.76233 2.72025 8.43732 3.35078 7.23759L4.33671 7.80684C4.45538 7.87641 4.60223 7.87706 4.72151 7.80854C4.84079 7.74003 4.91421 7.61286 4.91391 7.4753C4.91361 7.33774 4.83962 7.21089 4.72004 7.1429L3.73564 6.57442C4.46322 5.43207 5.43226 4.46303 6.57461 3.73545L7.14309 4.71985C7.21108 4.83943 7.33793 4.91342 7.47549 4.91372C7.61305 4.91402 7.74022 4.8406 7.80873 4.72132C7.87725 4.60204 7.8766 4.45519 7.80703 4.33652L7.23778 3.35059C9.90662 1.94964 13.0935 1.94964 15.7623 3.35059L15.1931 4.33652C15.1235 4.45519 15.1229 4.60204 15.1914 4.72132C15.2599 4.8406 15.3871 4.91402 15.5246 4.91372C15.6622 4.91342 15.789 4.83943 15.857 4.71985L16.4255 3.73545C17.5679 4.46303 18.5369 5.43207 19.2645 6.57442L18.2801 7.1429C18.1605 7.21089 18.0865 7.33774 18.0862 7.4753C18.0859 7.61286 18.1593 7.74003 18.2786 7.80854C18.3979 7.87706 18.5447 7.87641 18.6634 7.80684L19.6493 7.23759C20.2799 8.43732 20.6355 9.76233 20.6905 11.1165H19.5501C19.3384 11.1165 19.1667 11.2882 19.1667 11.4999C19.1667 11.7116 19.3384 11.8832 19.5501 11.8832H20.6905C20.6711 12.3726 20.6128 12.8597 20.5161 13.3399C20.4741 13.5471 20.6079 13.7491 20.8151 13.7914C20.8403 13.7967 20.866 13.7994 20.8917 13.7995C21.0738 13.7993 21.2306 13.6712 21.267 13.4928C21.8628 10.5606 21.1107 7.51572 19.2181 5.19817C17.3254 2.88062 14.4922 1.53527 11.5001 1.5332Z" fill="#FD3B3B"/>
<path d="M12.8312 9.62763L12.2995 3.80096C12.2632 3.3864 11.916 3.06836 11.4999 3.06836C11.0837 3.06836 10.7366 3.3864 10.7002 3.80096L10.1686 9.62763C9.35222 10.2071 9.00445 11.248 9.30856 12.2018C9.61266 13.1556 10.4988 13.8032 11.4999 13.8032C12.501 13.8032 13.3871 13.1556 13.6912 12.2018C13.9953 11.248 13.6475 10.2071 12.8312 9.62763ZM11.4638 3.86651C11.4693 3.85135 11.4837 3.84126 11.4999 3.84126C11.516 3.84126 11.5304 3.85135 11.5359 3.86651L12.0281 9.26193C11.6811 9.17705 11.3187 9.17705 10.9716 9.26193L11.4638 3.86651ZM11.4999 13.0332C10.653 13.0332 9.96654 12.3467 9.96654 11.4998C9.96654 10.653 10.653 9.96649 11.4999 9.96649C12.3467 9.96649 13.0332 10.653 13.0332 11.4998C13.0332 12.3467 12.3467 13.0332 11.4999 13.0332Z" fill="#FD3B3B"/>
</svg>
