<svg width="63" height="63" viewBox="0 0 63 63" fill="none" xmlns="http://www.w3.org/2000/svg">
<g clip-path="url(#clip0_8068_354)">
<path d="M35.8235 42.1304C38.1865 40.6742 39.7656 38.0632 39.7656 35.0897V31.9306V28.7733C39.7656 24.216 36.058 20.5084 31.5006 20.5084C26.9433 20.5084 23.2357 24.216 23.2357 28.7733V31.9315V35.0896C23.2357 38.063 24.8146 40.674 27.1777 42.1302C20.3701 44.0811 15.217 50.2569 15.217 57.2674V62.0751C15.217 62.5858 15.6311 63 16.142 63H22.3726C22.8834 63 23.2975 62.586 23.2975 62.0751C23.2975 61.5643 22.8835 61.1501 22.3726 61.1501H17.0667V57.2674C17.0667 53.645 18.6124 50.1816 21.4191 47.5149C23.0969 45.9208 25.1281 44.7333 27.2952 44.0404L28.7602 46.8867L26.792 55.4309C26.7171 55.7557 26.823 56.0957 27.0688 56.3208L30.8761 59.8053C31.0528 59.967 31.2767 60.0479 31.5005 60.0479C31.7243 60.0479 31.9482 59.967 32.1248 59.8053L35.9321 56.3208C36.178 56.0957 36.2838 55.7557 36.209 55.4309L34.2407 46.8866L35.7057 44.0404C37.8728 44.7333 39.904 45.9209 41.5819 47.5149C44.3886 50.1816 45.9343 53.6451 45.9343 57.2674V61.1502H25.4553C24.9445 61.1502 24.5304 61.5643 24.5304 62.0752C24.5304 62.586 24.9444 63.0001 25.4553 63.0001H46.8593C47.3701 63.0001 47.7843 62.5861 47.7843 62.0752V57.2674C47.784 50.257 42.6311 44.0813 35.8235 42.1304ZM25.0853 28.7735C25.0853 25.2362 27.9632 22.3583 31.5005 22.3583C35.0378 22.3583 37.9157 25.2362 37.9157 28.7735V30.9177C35.0083 30.3659 33.8305 27.4073 33.7781 27.2719C33.6499 26.9333 33.3357 26.7009 32.9745 26.6767C32.6131 26.6524 32.2711 26.8417 32.0992 27.1604C32.0797 27.1967 30.1842 30.5984 25.0853 30.9732V28.7735ZM34.2854 55.3206L31.5004 57.8696L28.7154 55.3206L30.4734 47.6894H32.5273L34.2854 55.3206ZM29.1372 43.5774C29.2143 43.5632 29.2915 43.5501 29.3687 43.537C29.4205 43.5285 29.4723 43.5201 29.5242 43.5121C29.6384 43.4942 29.7527 43.4777 29.8673 43.4627C29.9823 43.4478 30.0975 43.4337 30.2128 43.4215C30.2742 43.415 30.3356 43.4087 30.397 43.4029C30.553 43.3885 30.7092 43.376 30.8651 43.3666C30.9023 43.3644 30.9396 43.3628 30.9769 43.3608C31.0836 43.3553 31.1902 43.3526 31.2968 43.3495C31.3648 43.3511 31.4322 43.3547 31.5005 43.3547C31.5688 43.3547 31.6362 43.3511 31.7041 43.3495C31.8107 43.3526 31.9174 43.3554 32.024 43.3608C32.0613 43.3628 32.0986 43.3644 32.136 43.3666C32.292 43.3758 32.4482 43.3884 32.6041 43.4029C32.6655 43.4087 32.7269 43.415 32.7883 43.4215C32.9036 43.4337 33.0186 43.4478 33.1338 43.4627C33.2482 43.4777 33.3627 43.4943 33.4769 43.5121C33.5288 43.5201 33.5806 43.5285 33.6324 43.537C33.7095 43.5499 33.7868 43.5631 33.8638 43.5774L32.6992 45.8396H30.3016L29.1372 43.5774ZM31.7483 41.4985C31.67 41.4963 31.5918 41.4935 31.5132 41.4924C31.5048 41.4922 31.4963 41.4922 31.4879 41.4924C31.4094 41.4935 31.3312 41.4963 31.2529 41.4985C27.8301 41.3678 25.0854 38.5439 25.0854 35.0897V32.827C29.1705 32.5709 31.5822 30.6525 32.7797 29.321C33.6224 30.6304 35.2451 32.4357 37.9158 32.7923V35.0896C37.9157 38.5439 35.1711 41.3677 31.7483 41.4985Z" fill="#FD3B3B"/>
<path d="M21.0958 13.3462C20.8908 12.7153 20.3558 12.2641 19.6993 12.1687L15.4937 11.5577L13.613 7.74693C13.3195 7.15212 12.7249 6.78261 12.0616 6.78261C11.3984 6.78261 10.8038 7.15224 10.5103 7.74693L8.63006 11.5576L4.42455 12.1686C3.7681 12.264 3.23309 12.7152 3.02809 13.3461C2.8231 13.9768 2.99093 14.6563 3.46589 15.1193L6.50909 18.0856L5.79062 22.2741C5.67853 22.9279 5.94222 23.5762 6.47883 23.966C6.78201 24.1863 7.13688 24.2982 7.49396 24.2982C7.76885 24.2982 8.04534 24.2319 8.30066 24.0975L12.0621 22.1201L15.8234 24.0975C16.4106 24.4064 17.1085 24.3559 17.6452 23.966C18.182 23.5761 18.4455 22.9279 18.3333 22.2741L17.6148 18.0857L20.658 15.1194C21.1331 14.6565 21.3008 13.9769 21.0958 13.3462ZM16.2788 16.8049C15.8711 17.2024 15.6851 17.7747 15.7812 18.3361L16.4691 22.3473L12.8668 20.4535C12.3628 20.1886 11.7609 20.1885 11.2569 20.4535L7.65466 22.3473L8.34262 18.3361C8.43897 17.7748 8.2528 17.2024 7.84502 16.8049L4.93077 13.9641L8.95822 13.3789C9.52166 13.2971 10.0087 12.9433 10.2608 12.4327L12.062 8.78311L13.863 12.4326C14.1151 12.9432 14.6019 13.297 15.1655 13.3788L19.1929 13.964L16.2788 16.8049Z" fill="#FD3B3B"/>
<path d="M40.5522 6.5637C40.3472 5.93296 39.8122 5.48175 39.1557 5.38639L34.9502 4.77521L33.0693 0.964443C32.7757 0.369633 32.1813 0 31.5179 0C30.8546 0 30.2601 0.369633 29.9665 0.96432L28.0858 4.77509L23.8803 5.38626C23.2238 5.48163 22.6888 5.93284 22.4839 6.56358C22.2789 7.19432 22.4466 7.87378 22.9216 8.33693L25.9649 11.3031L25.2466 15.4916C25.1345 16.1454 25.3982 16.7937 25.9348 17.1835C26.4714 17.5735 27.1693 17.6239 27.7566 17.3152L31.518 15.3377L35.2796 17.3152C35.535 17.4493 35.8113 17.5158 36.086 17.5158C36.4431 17.5158 36.798 17.4038 37.1012 17.1835C37.6379 16.7936 37.9015 16.1453 37.7894 15.4916L37.071 11.3032L40.1142 8.33693C40.5893 7.87403 40.757 7.19444 40.5522 6.5637ZM35.7347 10.0227C35.327 10.4202 35.1409 10.9927 35.2371 11.5539L35.9251 15.5651L32.3227 13.6712C32.0707 13.5388 31.7943 13.4724 31.5179 13.4724C31.2414 13.4724 30.9649 13.5388 30.7129 13.6712L27.1106 15.565L27.7986 11.5539C27.8949 10.9925 27.7088 10.4201 27.3011 10.0227L24.3868 7.18189L28.4142 6.59668C28.9777 6.51473 29.4648 6.16097 29.7166 5.65032L31.5177 2.00087L33.3187 5.6502C33.5708 6.16097 34.0576 6.51473 34.6213 6.59668L38.6487 7.18189L35.7347 10.0227Z" fill="#FD3B3B"/>
<path d="M59.9719 13.3461C59.7669 12.7152 59.2319 12.2641 58.5755 12.1686L54.37 11.5576L52.4893 7.74681C52.1959 7.152 51.6013 6.78249 50.9379 6.78249C50.2746 6.78249 49.6802 7.15212 49.3866 7.74681L47.5059 11.5576L43.3003 12.1686C42.6438 12.264 42.1088 12.7152 41.9038 13.3461C41.6988 13.9769 41.8667 14.6564 42.3416 15.1193L45.3848 18.0856L44.6665 22.2741C44.5544 22.9279 44.8181 23.5762 45.3547 23.966C45.6579 24.1863 46.0126 24.2982 46.3698 24.2982C46.6447 24.2982 46.9211 24.2319 47.1764 24.0976L50.9378 22.1201L54.6992 24.0974C55.2862 24.4062 55.9844 24.3557 56.5211 23.9659C57.0578 23.576 57.3214 22.9276 57.2093 22.274L56.4909 18.0855L59.534 15.1192C60.0091 14.6565 60.1768 13.9769 59.9719 13.3461ZM55.1548 16.8049C54.747 17.2025 54.5609 17.7748 54.6572 18.3361L55.3451 22.3473L51.7429 20.4536C51.4908 20.3211 51.2144 20.2547 50.9378 20.2547C50.6613 20.2547 50.3848 20.321 50.1328 20.4535L46.5305 22.3473L47.2185 18.3362C47.3148 17.7749 47.1288 17.2025 46.721 16.805L43.8067 13.9643L47.8343 13.379C48.3979 13.2972 48.8848 12.9433 49.1368 12.4328L50.9378 8.78323L52.739 12.4329C52.9911 12.9435 53.4779 13.2971 54.0413 13.379L58.0688 13.9643L55.1548 16.8049Z" fill="#FD3B3B"/>
</g>
<defs>
<clipPath id="clip0_8068_354">
<rect width="63" height="63" fill="white"/>
</clipPath>
</defs>
</svg>
