<svg width="57" height="63" viewBox="0 0 57 63" fill="none" xmlns="http://www.w3.org/2000/svg">
<path d="M56.2429 8.46907L53.5508 6.0985L56.2429 3.72841C56.6615 3.35927 56.8048 2.78393 56.6082 2.26194C56.4106 1.73948 55.9228 1.40206 55.3647 1.40206H44.2242V0.92333C44.2242 0.41336 43.8108 0 43.3009 0C42.7909 0 42.3775 0.41336 42.3775 0.92333V13.376L34.7943 17.4938C34.7525 17.1602 34.6525 16.8324 34.4944 16.5238L33.4259 14.4378C32.6924 13.0055 30.9304 12.4378 29.499 13.1708L28.6727 13.5938C27.9787 13.9495 27.4649 14.5531 27.2255 15.2953C26.9861 16.0369 27.0501 16.8276 27.4058 17.5212L28.4742 19.6077C28.7237 20.0946 29.0924 20.4801 29.5259 20.7502C28.9587 21.5139 28.6896 22.4531 28.4127 23.4288L28.2137 24.1335C28.0748 24.6242 28.3603 25.1347 28.8511 25.2731C28.9347 25.2971 29.0193 25.3082 29.1025 25.3082C29.5052 25.3082 29.8753 25.0429 29.9907 24.6358L30.1897 23.9326C30.5944 22.5055 30.8429 21.7413 31.634 21.3116L33.0524 20.5411L33.2274 20.4517C33.2856 20.4219 33.3399 20.3883 33.3951 20.3551L43.5042 14.8656C43.4403 16.1292 42.7601 17.3231 41.6402 18.0033L35.0664 21.9975C35.0587 22.0018 35.051 22.0061 35.0438 22.0109L32.9976 23.2539C32.5622 23.5187 32.4233 24.0869 32.6881 24.5228C32.9376 24.9338 33.4567 25.0799 33.8801 24.8737L32.3276 29.5668L31.1928 30.032L28.107 31.2966L28.9962 28.1532C29.1347 27.6624 28.8496 27.152 28.3589 27.0131C27.8677 26.8737 27.3577 27.1597 27.2188 27.6504L25.8138 32.6189C25.7956 32.6828 25.7836 32.753 25.7807 32.8198L25.413 39.5739C25.4019 39.8315 25.4567 40.3184 25.3375 40.5698L21.2539 49.161H18.2864C16.5478 49.161 15.1338 50.5751 15.1338 52.3131V54.9783C14.7358 54.7961 14.2941 54.6942 13.8283 54.6942H6.2922C4.55417 54.6942 3.14009 56.1078 3.14009 57.8463V61.1532H0.92333C0.41336 61.1532 0 61.5666 0 62.0765C0 62.5865 0.41336 62.9999 0.92333 62.9999H55.3638C55.8737 62.9999 56.2871 62.5865 56.2871 62.0765C56.2871 61.5666 55.8737 61.1532 55.3638 61.1532H52.9624V37.3538C52.9624 35.6157 51.5484 34.2017 49.8103 34.2017H44.2242V18.0936C45.248 16.706 45.6272 14.8872 45.1519 13.1588C45.0774 12.8872 44.8827 12.6642 44.6231 12.5541C44.4958 12.4998 44.3593 12.4758 44.2242 12.4811V10.7954H55.3643C55.9228 10.7954 56.4106 10.458 56.6077 9.93602C56.8048 9.41403 56.6615 8.83821 56.2429 8.46907ZM28.9832 15.8624C29.0712 15.5899 29.2596 15.3679 29.5144 15.2376L30.3406 14.8146C30.4963 14.7348 30.6626 14.6969 30.827 14.6969C31.2164 14.6969 31.5927 14.9098 31.7821 15.2794L32.851 17.3659C33.1005 17.8533 32.939 18.444 32.4954 18.7425L32.1945 18.9054L31.5595 19.2308C31.0342 19.5 30.3872 19.2914 30.1181 18.7656L29.0491 16.6795C28.9188 16.4248 28.8953 16.1345 28.9832 15.8624ZM27.1279 49.445C26.8141 49.3018 26.4728 49.2081 26.1142 49.1749L27.1279 47.8286V49.445ZM31.512 42.005C31.9561 41.473 32.0786 40.8515 32.1777 40.3506C32.2026 40.2314 32.6583 37.7426 32.6583 37.7426C32.6583 37.7426 33.0895 38.0113 33.1346 38.0305C33.1659 38.0445 33.188 38.0752 33.1913 38.1113L33.6936 43.2172H30.5992L31.512 42.005ZM36.9721 36.9087L36.1925 43.2129H35.5489L35.0294 37.9306C34.963 37.2538 34.5487 36.6631 33.9416 36.3694L33.013 35.7806L33.6316 32.3521C33.6316 32.3521 36.2377 35.448 36.2983 35.5268C36.8376 36.2281 37.0221 36.5088 36.9721 36.9087ZM26.9986 41.3773C27.1851 40.8159 27.2717 40.2444 27.2572 39.6633L27.5927 33.5033L31.8633 31.7532L31.0871 36.0531C31.0847 36.0647 31.0823 36.0767 31.0808 36.0882L30.4387 39.6436C30.355 40.0118 30.282 40.5703 30.0522 40.8736L23.8129 49.161H23.2986L26.9986 41.3773ZM4.98675 57.8459C4.98675 57.1263 5.57219 56.5409 6.2922 56.5409H13.8283C14.5483 56.5409 15.1343 57.1263 15.1343 57.8459V61.1532H4.98675V57.8459ZM16.9804 57.8459V52.3131C16.9804 51.5931 17.5663 51.0076 18.2864 51.0076H25.8225C26.5425 51.0076 27.1279 51.5931 27.1279 52.3131V61.1532H16.9809V57.8459H16.9804ZM51.1158 37.3538V61.1532H40.9688V55.6171C40.9688 55.1071 40.5554 54.6937 40.0454 54.6937C39.535 54.6937 39.1216 55.1071 39.1216 55.6171V61.1532H28.9746V46.3689C28.9746 45.6493 29.56 45.0639 30.28 45.0639H37.8162C38.5362 45.0639 39.1216 45.6493 39.1216 46.3689V50.9975C39.1216 51.5075 39.535 51.9209 40.0449 51.9209C40.5554 51.9209 40.9683 51.5075 40.9683 50.9975V37.3538C40.9683 36.6338 41.5542 36.0483 42.2742 36.0483H43.2913C43.2941 36.0483 43.2975 36.0488 43.3009 36.0488C43.3038 36.0488 43.3071 36.0483 43.31 36.0483H49.8099C50.5299 36.0483 51.1158 36.6343 51.1158 37.3538ZM42.2742 34.2017C40.5362 34.2017 39.1221 35.6157 39.1221 37.3538V43.5013C38.7914 43.3504 38.4309 43.2547 38.0517 43.2269L38.8049 37.1361C38.9529 35.9488 38.3473 35.162 37.7619 34.4007C37.6999 34.3199 34.1108 30.0585 34.1108 30.0585L36.3127 23.4014L42.3775 19.7168V34.2017H42.2742ZM44.2242 8.94828V3.2492H53.9925L51.8887 5.10163C51.6022 5.35397 51.4378 5.71734 51.4378 6.09898C51.4378 6.48062 51.6022 6.84399 51.8887 7.09633L53.9925 8.94876H44.2242V8.94828Z" fill="#FD3B3B"/>
</svg>
