<svg width="63" height="63" viewBox="0 0 63 63" fill="none" xmlns="http://www.w3.org/2000/svg">
<path d="M63 26.4194H60.7167L57.3136 28.21C56.9305 27.9986 56.5321 27.8195 56.1024 27.7118L51.8216 26.6406V26.1539C53.7154 24.8322 54.871 22.6486 54.871 20.3226V18.5463C54.871 14.5989 51.7779 11.2955 47.9764 11.1804C47.7834 11.1754 47.5933 11.1824 47.4023 11.1918L48.5122 8.59344L43.1314 3.2141L39.9595 5.27861C38.7543 4.59987 37.4797 4.07146 36.1559 3.70083L35.3725 0H27.6285L26.8451 3.70183C25.5213 4.07245 24.2457 4.60086 23.0415 5.2796L19.8696 3.2151L14.4932 8.59145L15.5843 11.1918C15.5426 11.1898 15.5029 11.1824 15.4612 11.1814C13.5153 11.1248 11.6825 11.8348 10.2903 13.1864C8.89609 14.5369 8.12903 16.3494 8.12903 18.2903V20.3226C8.12903 22.6486 9.28359 24.8312 11.1774 26.1529V26.6406L8.38505 27.3387L3.32375 24.3871H0V45.4425L9.99657 48.7742H11.9435L12.1866 47.9228L15.2509 49.762C15.301 51.4281 16.6371 52.7688 18.3017 52.8273C18.3603 54.485 19.6925 55.8171 21.3501 55.8757C21.4087 57.5334 22.7409 58.8655 24.3985 58.9241C24.459 60.6204 25.8483 61.9839 27.5585 61.9839C28.1936 61.9839 28.8163 61.7859 29.3397 61.4331L30.2398 62.228C30.8039 62.7246 31.5303 63 32.2844 63H32.4725C34.1634 63 35.5392 61.6331 35.5606 59.9477C37.2331 59.9263 38.5876 58.5718 38.6089 56.8993C40.2825 56.8779 41.638 55.5214 41.6573 53.8479C43.3462 53.8082 44.7097 52.4284 44.7097 50.73C44.7097 50.6278 44.7047 50.5271 44.6943 50.4254L63 41.2733V26.4194ZM52.8387 18.5463V20.3226C52.8387 22.1261 51.8643 23.8111 50.2954 24.7195L49.7873 25.0132L49.7913 28.2288L54.868 29.497L43.6936 35.3785V32.6412C43.6936 31.2752 43.1418 30.0244 42.2383 29.1001L45.7258 28.2288V25.0108L45.2187 24.7175C43.6509 23.8111 42.6774 22.1261 42.6774 20.3226V18.2903C42.6774 16.9046 43.2252 15.6086 44.221 14.6436C45.2158 13.679 46.5355 13.1591 47.9154 13.2127C50.6298 13.294 52.8387 15.687 52.8387 18.5463ZM33.0321 34.5796L28.4323 33.1095C26.336 32.4377 24.0671 32.3375 21.9212 32.8128L21.3387 32.9418V32.6412C21.3387 31.24 22.2889 30.0234 23.6473 29.6831L29.4677 28.2288V25.0108L28.9607 24.7175C27.3928 23.8111 26.4194 22.1261 26.4194 20.3226V18.2903C26.4194 16.9046 26.9671 15.6086 27.9629 14.6436C28.9577 13.679 30.2859 13.1591 31.6573 13.2127C34.3718 13.294 36.5807 15.687 36.5807 18.5463V20.3226C36.5807 22.1261 35.6062 23.8111 34.0373 24.7195L33.5293 25.0132L33.5333 28.2288L39.3527 29.6831C40.7112 30.0234 41.6613 31.24 41.6613 32.6412V36.4487L41.4102 36.5807H40.7876L34.5405 34.7955C34.0483 34.6561 33.5412 34.599 33.0321 34.5796ZM21.5664 15.2082C23.4747 11.5108 27.3154 9.14516 31.5 9.14516C35.6449 9.14516 39.4693 11.4791 41.3919 15.1263C40.9081 16.0963 40.6452 17.1705 40.6452 18.2903V20.3226C40.6452 22.6486 41.7997 24.8312 43.6936 26.1529V26.6406L39.629 27.6583L35.5635 26.6406V26.1539C37.4574 24.8322 38.6129 22.6486 38.6129 20.3226V18.5463C38.6129 14.5989 35.5199 11.2955 31.7183 11.1804C29.7734 11.1233 27.9396 11.8338 26.5474 13.1854C25.1542 14.5369 24.3871 16.3494 24.3871 18.2903V20.3226C24.3871 22.6486 25.5417 24.8312 27.4355 26.1529V26.6406L23.371 27.6583L19.3055 26.6406V26.1539C21.1993 24.8322 22.3548 22.6486 22.3548 20.3226V18.5463C22.3548 17.3506 22.0671 16.2154 21.5664 15.2082ZM16.8931 9.0628L20.1395 5.81645L22.9969 7.67604L23.5436 7.34064C24.9135 6.50114 26.3941 5.8864 27.9436 5.51578L28.5687 5.36594L29.2757 2.03226H33.7253L34.4303 5.36494L35.0555 5.51429C36.605 5.88541 38.0855 6.50015 39.4554 7.33965L40.0021 7.67505L42.8595 5.81545L46.1019 9.05883L44.9493 11.7574C44.1649 12.0948 43.4375 12.5696 42.8044 13.1834C42.7628 13.2241 42.727 13.2677 42.6864 13.3094C40.2924 9.50388 36.0602 7.1129 31.5 7.1129C26.9071 7.1129 22.663 9.52621 20.275 13.3704C19.6359 12.7016 18.8758 12.1598 18.0333 11.7812L16.8931 9.0628ZM13.2097 28.2288V25.0108L12.7026 24.7175C11.1348 23.8111 10.1613 22.1261 10.1613 20.3226V18.2903C10.1613 16.9046 10.709 15.6086 11.7048 14.6436C12.6996 13.679 14.0224 13.1591 15.3992 13.2127C18.1137 13.294 20.3226 15.687 20.3226 18.5463V20.3226C20.3226 22.1261 19.3481 23.8111 17.7793 24.7195L17.2712 25.0132L17.2752 28.2288L20.7617 29.1001C19.8582 30.0244 19.3065 31.2752 19.3065 32.6412V33.3938L16.137 34.0984L16.2194 33.8106L16.2581 31.9327L10.8991 28.8064L13.2097 28.2288ZM2.03226 26.4194H2.77302L10.0809 30.6818L6.39348 45.4311L2.03226 43.9769V26.4194ZM10.326 46.7419L8.32601 46.0756L11.9083 31.7481L14.2258 33.0996V33.3899L10.4114 46.7419H10.326ZM17.2742 49.6673C17.2742 49.3676 17.3953 49.0739 17.6076 48.8615L19.3938 47.0754C19.6061 46.863 19.8999 46.7419 20.1995 46.7419C20.8277 46.7419 21.3387 47.253 21.3387 47.8811C21.3387 48.1808 21.2176 48.4745 21.0053 48.6869L19.2191 50.473C19.0068 50.6854 18.7131 50.8065 18.4134 50.8065C17.7852 50.8065 17.2742 50.2954 17.2742 49.6673ZM20.3226 52.7157C20.3226 52.416 20.4436 52.1223 20.656 51.9099L22.4422 50.1237C22.6545 49.9114 22.9482 49.7903 23.2479 49.7903C23.8761 49.7903 24.3871 50.3014 24.3871 50.9295C24.3871 51.2292 24.266 51.5229 24.0537 51.7353L22.2675 53.5214C22.0552 53.7338 21.7614 53.8548 21.4618 53.8548C20.8336 53.8548 20.3226 53.3438 20.3226 52.7157ZM23.371 55.7641C23.371 55.4644 23.492 55.1707 23.7044 54.9583L25.4906 53.1721C25.7029 52.9598 25.9966 52.8387 26.2963 52.8387C26.9244 52.8387 27.4355 53.3498 27.4355 53.9779C27.4355 54.2776 27.3144 54.5713 27.1021 54.7836L25.3159 56.5698C25.1035 56.7822 24.8098 56.9032 24.5101 56.9032C23.882 56.9032 23.371 56.3922 23.371 55.7641ZM27.5585 59.9516C26.9304 59.9516 26.4194 59.4406 26.4194 58.8124C26.4194 58.5128 26.5404 58.219 26.7528 58.0067L28.5389 56.2205C28.7513 56.0082 29.045 55.8871 29.3447 55.8871C29.9728 55.8871 30.4839 56.3981 30.4839 57.0263C30.4839 57.326 30.3628 57.6197 30.1505 57.832L28.3643 59.6182C28.1519 59.8306 27.8582 59.9516 27.5585 59.9516ZM32.4725 60.9677H32.2844C32.0254 60.9677 31.7774 60.8735 31.5844 60.7023L30.8242 60.032L31.5873 59.2689C31.8597 58.9965 32.0711 58.6725 32.2274 58.3247L33.1512 59.0938C33.3928 59.2952 33.5323 59.5919 33.5323 59.908C33.5323 60.4924 33.0569 60.9677 32.4725 60.9677ZM41.5849 51.8226H41.4092C41.1542 51.8226 40.9052 51.7323 40.7102 51.5686L35.1998 46.9766L33.8979 48.5385L39.249 52.997C39.4896 53.1984 39.629 53.4951 39.629 53.8112C39.629 54.3957 39.1537 54.871 38.5692 54.871H38.3475C38.1009 54.871 37.8597 54.7836 37.6697 54.6249L32.1505 50.026L30.8485 51.5879L36.1996 56.0469C36.4412 56.2468 36.5807 56.5435 36.5807 56.8596C36.5807 57.444 36.1053 57.9194 35.5209 57.9194C35.1309 57.9194 34.7508 57.7809 34.4516 57.5324L32.1837 55.642C31.6841 54.6209 30.6575 53.9089 29.4553 53.8663C29.3968 52.2086 28.0646 50.8764 26.407 50.8179C26.3484 49.1602 25.0162 47.828 23.3586 47.7695C23.299 46.0731 21.9098 44.7097 20.1995 44.7097C19.3645 44.7097 18.5473 45.0481 17.9569 45.6385L16.1707 47.4247C16.0641 47.5313 15.9758 47.6524 15.8859 47.7725L12.7646 45.8995L15.5009 36.3226L22.3608 34.7975C24.1604 34.3951 26.0577 34.4824 27.8126 35.0441L29.3095 35.5228L24.2348 38.0602C23.0753 38.6412 22.3548 39.8077 22.3548 41.1046V41.3055C22.3548 43.1825 23.882 44.7097 25.759 44.7097C26.3757 44.7097 26.9825 44.542 27.5099 44.2239L31.2936 41.955C32.0537 41.4995 33.0738 41.5993 33.7302 42.1897L42.3157 49.9164C42.5454 50.1247 42.6774 50.4204 42.6774 50.73C42.6774 51.3329 42.1877 51.8226 41.5849 51.8226ZM60.9677 40.017L43.8489 48.5772C43.7933 48.5182 43.7352 48.4621 43.6742 48.4075L35.0902 40.6809C34.338 40.0021 33.3656 39.629 32.3524 39.629C31.6116 39.629 30.8843 39.8305 30.2472 40.2125L26.462 42.4824C26.2497 42.6104 26.0071 42.6774 25.759 42.6774C25.0018 42.6774 24.3871 42.0627 24.3871 41.3055V41.1046C24.3871 40.5812 24.6778 40.1118 25.1452 39.8781L30.8133 37.0441C31.7833 36.5583 32.9349 36.4497 33.9803 36.7503L40.3658 38.5742L41.9123 38.6129L60.9677 28.5836V40.017Z" fill="#FD3B3B"/>
</svg>
