<svg width="62" height="50" viewBox="0 0 62 50" fill="none" xmlns="http://www.w3.org/2000/svg">
<path d="M56.2652 11.0693H46.3116L46.0894 10.2518L49.4845 7.52296C49.9213 7.17179 50.0916 6.6006 49.9184 6.06756C49.7451 5.53453 49.2715 5.17252 48.7119 5.14533L44.3614 4.9332L42.8154 0.861082C42.6168 0.33801 42.1261 0 41.5654 0C41.0046 0 40.5139 0.338133 40.3156 0.861082L38.7695 4.9332L34.419 5.14521C33.8593 5.1724 33.3858 5.5344 33.2124 6.06744C33.0393 6.60048 33.2096 7.17166 33.6463 7.52272L37.0414 10.2515L36.8192 11.0691H26.8657C24.1096 11.0691 21.8673 13.3113 21.8673 16.0675V16.9561H21.3299C21.3299 16.9561 21.3299 16.9561 21.3298 16.9561C20.8914 16.9561 20.4658 17.0414 20.0713 17.2037C20.3641 16.6025 20.5306 16.0381 20.5923 15.5907C20.5984 15.5461 20.6015 15.5012 20.6015 15.4562V11.6533C20.6015 7.86848 17.522 4.78935 13.7367 4.78935C13.1931 4.78935 12.7523 5.23011 12.7523 5.77373V10.6764C12.7523 13.6182 10.4416 15.2471 7.99534 16.9717C7.62829 17.2305 7.25177 17.4965 6.88398 17.7665H0.984375C0.440754 17.7665 0 18.2072 0 18.7509V34.9006C0 35.4443 0.440754 35.885 0.984375 35.885H6.8232C8.94354 37.7942 11.0762 38.4141 13.5536 38.4141C15.4559 38.4141 17.5617 38.0489 20.0202 37.6227L20.5693 37.5277C20.8157 37.5855 21.0703 37.6162 21.3296 37.6162H21.3298H21.3299H22.0758C22.6954 39.701 24.6195 41.1837 26.8656 41.1837H29.2778V48.3759C29.2778 48.7776 29.5219 49.139 29.8946 49.289C30.0138 49.337 30.1384 49.3603 30.2619 49.3603C30.5249 49.3603 30.7826 49.2549 30.972 49.0578L38.5362 41.1837H56.2652C59.0213 41.1837 61.2636 38.9414 61.2636 36.1853V16.0677C61.2636 13.3116 59.0214 11.0693 56.2652 11.0693ZM36.1765 7.0309L39.2782 6.87967C39.8095 6.85383 40.2747 6.5157 40.4631 6.01871L41.5654 3.11555L42.6679 6.01908C42.8566 6.51595 43.3217 6.85371 43.8526 6.87967L46.9543 7.0309L44.5339 8.97639C44.1194 9.3096 43.9418 9.8563 44.0812 10.3693L44.8959 13.366L42.2975 11.665C41.8529 11.374 41.2782 11.374 40.8331 11.6651L38.235 13.366L39.0497 10.3693C39.1892 9.8563 39.0114 9.30948 38.597 8.97639L36.1765 7.0309ZM21.3296 18.925C21.3297 18.925 21.3297 18.925 21.3296 18.925H27.1503C27.8958 18.925 28.5022 19.5315 28.5022 20.2769C28.5022 21.0224 27.8957 21.6289 27.1503 21.6289H21.3298C20.5843 21.6289 19.9778 21.0224 19.9778 20.2769C19.9778 19.9183 20.119 19.5795 20.3757 19.3229C20.6323 19.0664 20.971 18.925 21.3296 18.925ZM21.3297 30.9746C20.5843 30.9745 19.9778 30.368 19.9778 29.6224C19.9778 28.8769 20.5844 28.2705 21.3298 28.2705H26.4951C27.2406 28.2705 27.847 28.877 27.847 29.6224C27.847 30.368 27.2405 30.9746 26.4951 30.9746H21.3297ZM20.3456 26.3018C19.6 26.3018 18.9935 25.6953 18.9935 24.9498C18.9935 24.2043 19.6001 23.5978 20.3456 23.5978H28.1345C28.8801 23.5978 29.4865 24.2044 29.4866 24.9497C29.4865 25.6953 28.88 26.3018 28.1345 26.3018H20.3456ZM6.23036 33.9164H1.96875V19.7354H6.22605C6.23319 28.4292 6.23306 32.3318 6.23036 33.9164ZM8.19431 19.2471C8.49663 19.0274 8.80659 18.8085 9.12946 18.5808C11.7504 16.7331 14.7208 14.639 14.7208 10.6764V6.8574C16.9502 7.31428 18.6325 9.29102 18.6325 11.6533V15.3821C18.5342 15.9662 18.1307 16.9125 17.2898 17.7541C16.955 18.0891 16.9064 18.6153 17.174 19.0061C17.8772 20.0328 18.1153 20.986 17.9021 21.9203C17.4906 23.7223 15.4687 25.0527 14.6185 25.541C14.1471 25.8118 13.9844 26.4134 14.2551 26.8848C14.4371 27.2017 14.7687 27.379 15.1097 27.379C15.2759 27.379 15.4445 27.3368 15.599 27.2481C16.0649 26.9806 16.6511 26.6046 17.2408 26.124C17.499 26.8042 17.973 27.379 18.5807 27.7617C18.22 28.2928 18.009 28.9335 18.009 29.6225C18.009 30.5327 18.3771 31.3586 18.9722 31.9591C18.3771 32.5596 18.009 33.3853 18.009 34.2955C18.009 34.8653 18.1535 35.4135 18.4237 35.8998C13.6522 36.7092 10.9754 36.9422 8.19763 34.474L8.19431 19.2471ZM25.1016 32.9435C25.8471 32.9435 26.4535 33.55 26.4535 34.2955C26.4535 34.6541 26.3122 34.9928 26.0555 35.2495C25.7989 35.5062 25.4601 35.6474 25.1016 35.6474H25.1014H21.3298H21.3297C20.9712 35.6474 20.6324 35.5062 20.3758 35.2496C20.1191 34.9929 19.9779 34.6542 19.9779 34.2955C19.9779 33.55 20.5845 32.9435 21.3299 32.9435H25.1016ZM59.2948 36.1853C59.2948 37.8559 57.9356 39.2149 56.2652 39.2149H38.1168C37.8489 39.2149 37.5925 39.3242 37.4069 39.5174L31.2465 45.9303V40.1993C31.2465 39.6557 30.8058 39.2149 30.2621 39.2149H26.8656C25.7168 39.2149 24.7078 38.5748 24.1946 37.6162H25.1013H25.1017C25.986 37.6162 26.8192 37.2702 27.4476 36.6416C28.076 36.0131 28.4222 35.18 28.4222 34.2955C28.4222 33.6781 28.2528 33.0992 27.9581 32.6035C29.0575 32.0616 29.8159 30.9289 29.8159 29.6225C29.8159 29.0414 29.6659 28.4947 29.4024 28.0191C30.6064 27.5199 31.4555 26.3323 31.4556 24.9498C31.4555 23.7668 30.8336 22.7263 29.8995 22.138C30.2602 21.6069 30.4712 20.9661 30.4712 20.277C30.4712 18.446 28.9816 16.9564 27.1505 16.9564H23.8359V16.0677C23.8359 14.3971 25.195 13.038 26.8656 13.038H36.2839L35.8988 14.4547C35.7516 14.9955 35.9494 15.5577 36.4027 15.8872C36.856 16.2167 37.4519 16.2314 37.9212 15.9245L41.5655 13.5388L45.2099 15.9245C45.4347 16.0718 45.6889 16.145 45.9425 16.145C46.2175 16.145 46.492 16.0588 46.7279 15.8874C47.1813 15.558 47.3792 14.9958 47.2323 14.4551L46.847 13.0382H56.2653C57.9358 13.0382 59.2949 14.3972 59.2949 16.0678V36.1853H59.2948ZM56.8041 33.7869C56.8041 34.3306 56.3633 34.7713 55.8197 34.7713H33.7105C33.1669 34.7713 32.7262 34.3306 32.7262 33.7869C32.7262 33.2433 33.1669 32.8026 33.7105 32.8026H55.8197C56.3633 32.8026 56.8041 33.2432 56.8041 33.7869ZM32.7262 19.0212C32.7262 18.4776 33.1669 18.0368 33.7105 18.0368H47.9867C48.5303 18.0368 48.9711 18.4776 48.9711 19.0212C48.9711 19.5648 48.5303 20.0056 47.9867 20.0056H33.7105C33.167 20.0056 32.7262 19.5648 32.7262 19.0212ZM32.7262 22.7126C32.7262 22.169 33.1669 21.7282 33.7105 21.7282H45.5312C46.0748 21.7282 46.5155 22.169 46.5155 22.7126C46.5155 23.2562 46.0748 23.697 45.5312 23.697H33.7105C33.167 23.697 32.7262 23.2562 32.7262 22.7126ZM32.7262 26.404C32.7262 25.8604 33.1669 25.4196 33.7105 25.4196H53.3023C53.8459 25.4196 54.2867 25.8604 54.2867 26.404C54.2867 26.9476 53.8459 27.3884 53.3023 27.3884H33.7105C33.167 27.3884 32.7262 26.9476 32.7262 26.404ZM32.7262 30.0955C32.7262 29.5519 33.1669 29.1112 33.7105 29.1112H50.6755C51.2191 29.1112 51.6599 29.5519 51.6599 30.0955C51.6599 30.6392 51.2191 31.0799 50.6755 31.0799H33.7105C33.167 31.0799 32.7262 30.6392 32.7262 30.0955Z" fill="#FD3B3B"/>
</svg>
