<svg width="63" height="63" viewBox="0 0 63 63" fill="none" xmlns="http://www.w3.org/2000/svg">
<path d="M54.5256 41.838C55.3291 40.7873 55.8078 39.4757 55.8078 38.0538V35.8743C55.8078 32.4318 53.0071 29.6313 49.5648 29.6313C46.1224 29.6313 43.3217 32.432 43.3217 35.8743V38.0538C43.3217 39.4748 43.7998 40.7856 44.6023 41.8359H37.618C39.3054 40.2219 40.3594 37.9512 40.3594 35.4375V29.7712C40.3594 24.8861 36.3851 20.9118 31.5 20.9118C26.6149 20.9118 22.6406 24.8861 22.6406 29.7712V35.4375C22.6406 37.9512 23.6946 40.2219 25.3819 41.8359H18.3976C19.2001 40.7855 19.6781 39.4747 19.6781 38.0538V35.8743C19.6781 32.4318 16.8775 29.6313 13.4351 29.6313C9.99276 29.6313 7.19209 32.4318 7.19209 35.8743V38.0538C7.19209 39.4758 7.67087 40.7873 8.47424 41.838C3.79403 41.8831 0 45.7027 0 50.3934V55.0531C0 55.7326 0.551004 56.2836 1.23047 56.2836H11.0742V61.7695C11.0742 62.449 11.6252 63 12.3047 63H15.7501C16.4296 63 16.9806 62.449 16.9806 61.7695C16.9806 61.0901 16.4296 60.5391 15.7501 60.5391H13.5352V54.5442C13.5352 49.1663 17.7003 44.746 22.9736 44.3317L29.6612 60.5391H26.8236C26.1441 60.5391 25.5931 61.0901 25.5931 61.7695C25.5931 62.449 26.1441 63 26.8236 63H50.6953C51.3748 63 51.9258 62.449 51.9258 61.7695V56.2836H61.7695C62.449 56.2836 63 55.7326 63 55.0531V50.3934C63 45.7027 59.206 41.8831 54.5256 41.838ZM45.7827 38.0538V35.8743C45.7827 33.7889 47.4794 32.0922 49.5648 32.0922C51.6502 32.0922 53.3469 33.7889 53.3469 35.8743V38.0538C53.3469 40.1392 51.6502 41.8359 49.5648 41.8359C47.4794 41.8359 45.7827 40.1392 45.7827 38.0538ZM31.5 23.3728C35.0281 23.3728 37.8984 26.2431 37.8984 29.7712V29.7835H37.8931C35.8567 29.7835 33.8791 29.1936 32.1738 28.0778C31.7646 27.8098 31.2356 27.8098 30.8263 28.0778C29.121 29.1936 27.1433 29.7835 25.107 29.7835H25.1016V29.7712C25.1016 26.2431 27.9719 23.3728 31.5 23.3728ZM25.1016 35.4375V32.2444H25.1069C27.3594 32.2444 29.5534 31.6606 31.5 30.5493C33.4466 31.6606 35.6407 32.2444 37.8931 32.2444H37.8984V35.4375C37.8984 38.9656 35.0281 41.8359 31.5 41.8359C27.9719 41.8359 25.1016 38.9656 25.1016 35.4375ZM9.65303 35.8743C9.65303 33.7889 11.3497 32.0922 13.4351 32.0922C15.5205 32.0922 17.2172 33.7889 17.2172 35.8743V38.0538C17.2172 40.1392 15.5205 41.8359 13.4351 41.8359C11.3497 41.8359 9.65303 40.1392 9.65303 38.0538V35.8743ZM11.0951 53.8227H2.46094V50.3934C2.46094 47.0318 5.1959 44.2969 8.55742 44.2969H16.2757C13.3058 46.4784 11.3149 49.9175 11.0951 53.8227ZM25.6399 44.2969H30.2695V47.25C30.2695 47.9295 30.8205 48.4805 31.5 48.4805C32.1795 48.4805 32.7305 47.9295 32.7305 47.25V44.2969H37.3601H37.3786L31.5 58.5436L25.6214 44.2969H25.6399ZM49.4648 60.5391H33.3388L40.0264 44.3318C45.2997 44.746 49.4648 49.1663 49.4648 54.5442V60.5391ZM60.5391 53.8227H51.9049C51.6851 49.9175 49.6942 46.4784 46.7243 44.2969H54.4426C57.8041 44.2969 60.5391 47.0318 60.5391 50.3934V53.8227Z" fill="#FD3B3B"/>
<path d="M23.047 9.48015L25.9841 11.6044L24.8607 15.0365C24.5281 16.0527 24.8721 17.1155 25.7373 17.744C26.6023 18.3725 27.7194 18.3714 28.5831 17.7409L31.4999 15.6118L34.4167 17.7408C34.8494 18.0565 35.3454 18.2145 35.8417 18.2145C36.3361 18.2145 36.8308 18.0576 37.2626 17.744C38.1277 17.1156 38.4717 16.0527 38.1391 15.0363L37.0157 11.6044L39.9529 9.48015C40.8184 8.85421 41.1651 7.79305 40.8361 6.77681C40.5071 5.76069 39.6044 5.10411 38.5365 5.10411H34.909L33.8001 1.67368C33.4712 0.656947 32.5686 0 31.4999 0C30.4312 0 29.5286 0.656947 29.1998 1.67381L28.0909 5.10423H24.4635C23.3954 5.10423 22.4928 5.76081 22.1638 6.77693C21.8347 7.79305 22.1814 8.85421 23.047 9.48015ZM28.9863 7.56504C29.5201 7.56504 29.993 7.22088 30.1572 6.71307L31.5002 2.55962L32.8426 6.71307C33.0069 7.22088 33.4797 7.56504 34.0135 7.56504L38.401 7.56541L34.8458 10.1365C34.4123 10.4501 34.2311 11.0079 34.3974 11.5164L35.7576 15.6727L32.2253 13.0945C32.0092 12.9368 31.7545 12.8579 31.4998 12.8579C31.2451 12.8579 30.9904 12.9368 30.7743 13.0945L27.2416 15.6726L28.6022 11.5164C28.7686 11.0079 28.5874 10.4501 28.1538 10.1365L24.5987 7.56517L28.9863 7.56504Z" fill="#FD3B3B"/>
<path d="M21.2871 60.5391C20.9635 60.5391 20.646 60.6706 20.4172 60.8996C20.1883 61.1286 20.0566 61.4459 20.0566 61.7695C20.0566 62.0931 20.1882 62.4106 20.4172 62.6393C20.646 62.8682 20.9635 63 21.2871 63C21.6107 63 21.9282 62.8683 22.1569 62.6393C22.3859 62.4106 22.5176 62.0931 22.5176 61.7695C22.5176 61.4459 22.3859 61.1285 22.1569 60.8996C21.9282 60.6706 21.6107 60.5391 21.2871 60.5391Z" fill="#FD3B3B"/>
</svg>
