<svg width="59" height="59" viewBox="0 0 59 59" fill="none" xmlns="http://www.w3.org/2000/svg">
<path d="M29.2937 3.9375C29.0326 3.9375 28.7822 3.83379 28.5976 3.64918C28.413 3.46458 28.3093 3.2142 28.3093 2.95312V0.984375C28.3093 0.723302 28.413 0.472923 28.5976 0.288317C28.7822 0.103711 29.0326 0 29.2937 0C29.5548 0 29.8052 0.103711 29.9898 0.288317C30.1744 0.472923 30.2781 0.723302 30.2781 0.984375V2.95312C30.2781 3.2142 30.1744 3.46458 29.9898 3.64918C29.8052 3.83379 29.5548 3.9375 29.2937 3.9375Z" fill="#FD3B3B"/>
<path d="M20.9264 6.17892C20.7535 6.17909 20.5835 6.13369 20.4337 6.04728C20.2839 5.96088 20.1595 5.83652 20.073 5.68673L19.0886 3.9818C18.9601 3.75583 18.9262 3.48821 18.9944 3.23735C19.0625 2.98649 19.227 2.77275 19.4521 2.64278C19.6773 2.5128 19.9446 2.47715 20.1959 2.54359C20.4473 2.61003 20.6621 2.77318 20.7935 2.99742L21.7779 4.70236C21.8643 4.85193 21.9098 5.02159 21.9098 5.1943C21.9098 5.367 21.8644 5.53668 21.7782 5.6863C21.6919 5.83591 21.5678 5.96019 21.4183 6.04666C21.2688 6.13313 21.0991 6.17875 20.9264 6.17892Z" fill="#FD3B3B"/>
<path d="M37.6609 6.17892C37.4881 6.17875 37.3185 6.13313 37.169 6.04666C37.0195 5.96019 36.8954 5.83591 36.8091 5.6863C36.7228 5.53668 36.6774 5.367 36.6775 5.1943C36.6775 5.02159 36.723 4.85193 36.8094 4.70236L37.7937 2.99742C37.9252 2.77318 38.14 2.61003 38.3913 2.54359C38.6426 2.47715 38.91 2.5128 39.1351 2.64278C39.3603 2.77275 39.5248 2.98649 39.5929 3.23735C39.661 3.48821 39.6272 3.75583 39.4987 3.9818L38.5143 5.68673C38.4278 5.83652 38.3034 5.96088 38.1536 6.04728C38.0038 6.13369 37.8338 6.17909 37.6609 6.17892Z" fill="#FD3B3B"/>
<path d="M56.5855 21.0331C56.6084 20.8579 56.6199 20.6813 56.6199 20.5045C56.6164 19.6025 56.3041 18.7288 55.7352 18.0288C55.1663 17.3287 54.3749 16.8445 53.4926 16.6566C52.4838 16.469 51.4414 16.6726 50.5774 17.2261C49.7134 17.7796 49.0927 18.6414 48.8414 19.6363L45.4197 31.7205C45.0427 31.8023 44.6798 31.9392 44.3428 32.127L35.641 37.2281C34.3102 38.012 33.2066 39.1291 32.4389 40.4692C31.6711 41.8093 31.2657 43.3263 31.2625 44.8708V57.0937C31.2625 57.3548 31.3662 57.6052 31.5508 57.7898C31.7354 57.9744 31.9858 58.0781 32.2468 58.0781C32.5079 58.0781 32.7583 57.9744 32.9429 57.7898C33.1275 57.6052 33.2312 57.3548 33.2312 57.0937V44.8708C33.2337 43.6696 33.5491 42.4897 34.1463 41.4475C34.7436 40.4053 35.602 39.5366 36.6371 38.9271L45.3331 33.829C45.5571 33.6977 45.8048 33.612 46.0621 33.5768C46.3193 33.5417 46.581 33.5577 46.832 33.6241C47.083 33.6905 47.3184 33.8058 47.5247 33.9635C47.7309 34.1212 47.9039 34.3182 48.0338 34.543C48.1636 34.7679 48.2477 35.0162 48.2811 35.2737C48.3146 35.5312 48.2968 35.7927 48.2288 36.0433C48.1607 36.2938 48.0438 36.5285 47.8847 36.7337C47.7257 36.9389 47.5276 37.1106 47.3019 37.2389L41.6604 40.4962C41.5476 40.5604 41.4485 40.6462 41.369 40.7488C41.2894 40.8514 41.231 40.9687 41.197 41.094C41.1629 41.2193 41.154 41.3501 41.1708 41.4788C41.1875 41.6076 41.2295 41.7317 41.2944 41.8441C41.3594 41.9566 41.4459 42.055 41.549 42.1339C41.6521 42.2127 41.7698 42.2704 41.8953 42.3036C42.0208 42.3368 42.1517 42.3448 42.2803 42.3272C42.4089 42.3097 42.5328 42.2668 42.6448 42.2011L48.2862 38.9438C49.0922 38.4808 49.7073 37.7463 50.0216 36.8715C50.3359 35.9968 50.329 35.0387 50.002 34.1686L52.7041 24.1005C52.8266 23.591 53.1363 23.1462 53.5716 22.8544C54.0069 22.5626 54.536 22.4452 55.0538 22.5255C55.4941 22.6187 55.8894 22.8596 56.1742 23.2081C56.459 23.5566 56.6163 23.992 56.6199 24.442C56.6213 24.6151 56.5994 24.7876 56.555 24.9549L52.2739 40.9333C52.1241 41.4909 51.8144 41.9925 51.3831 42.3764L44.7277 48.2924C44.2076 48.7546 43.7914 49.3217 43.5065 49.9565C43.2216 50.5913 43.0745 51.2792 43.075 51.975V57.0937C43.075 57.3548 43.1787 57.6052 43.3633 57.7898C43.5479 57.9744 43.7983 58.0781 44.0593 58.0781C44.3204 58.0781 44.5708 57.9744 44.7554 57.7898C44.94 57.6052 45.0437 57.3548 45.0437 57.0937V51.975C45.0437 51.558 45.1321 51.1457 45.303 50.7653C45.4738 50.385 45.7233 50.0451 46.035 49.768L52.6923 43.851C53.4115 43.2104 53.9269 42.3729 54.1748 41.4422L58.4558 25.4658C58.5455 25.1316 58.5902 24.787 58.5887 24.441C58.5843 23.747 58.3967 23.0663 58.045 22.468C57.6932 21.8696 57.1898 21.3746 56.5855 21.0331ZM50.8033 23.5925L48.4752 32.2629C48.1585 32.0526 47.813 31.8891 47.4495 31.7776L50.7393 20.162C50.8639 19.6532 51.1743 19.2095 51.6095 18.9181C52.0447 18.6266 52.5731 18.5085 53.091 18.587C53.5309 18.6803 53.9257 18.9215 54.2096 19.2703C54.4934 19.6192 54.6493 20.0548 54.6512 20.5045V20.5183C53.7626 20.541 52.9058 20.8534 52.2111 21.408C51.5165 21.9626 51.0221 22.729 50.8033 23.5905V23.5925Z" fill="#FD3B3B"/>
<path d="M22.9464 37.2281L14.2386 32.1241C13.9036 31.937 13.5427 31.8006 13.1676 31.7195L9.74987 19.6481C9.50113 18.6499 8.88054 17.7843 8.01495 17.2282C7.14936 16.6722 6.1041 16.4678 5.09279 16.6566C4.21096 16.8451 3.42012 17.3295 2.8516 18.0295C2.28308 18.7294 1.97108 19.6028 1.9674 20.5045C1.96738 20.6813 1.97889 20.8579 2.00186 21.0331C1.24315 21.4597 0.647709 22.1263 0.309151 22.9281C-0.0294066 23.73 -0.0918828 24.6216 0.131545 25.4628L4.41259 41.4422C4.66158 42.3712 5.17731 43.2069 5.89604 43.846L12.5524 49.7621C12.8648 50.0398 13.1147 50.3807 13.2856 50.7621C13.4565 51.1436 13.5444 51.557 13.5437 51.975V57.0938C13.5437 57.3548 13.6474 57.6052 13.832 57.7898C14.0166 57.9744 14.267 58.0781 14.528 58.0781C14.7891 58.0781 15.0395 57.9744 15.2241 57.7898C15.4087 57.6052 15.5124 57.3548 15.5124 57.0938V51.975C15.5123 51.2799 15.365 50.5927 15.0801 49.9586C14.7952 49.3246 14.3793 48.7581 13.8596 48.2964L7.20526 42.3803C6.77324 41.9968 6.46316 41.4951 6.31342 40.9372L2.03139 24.9529C1.96395 24.6944 1.94965 24.4249 1.98934 24.1607C2.02903 23.8965 2.1219 23.6431 2.26231 23.4159C2.40273 23.1886 2.58778 22.9921 2.80628 22.8384C3.02478 22.6847 3.27219 22.5769 3.53354 22.5215C4.05142 22.441 4.58062 22.5584 5.01596 22.8502C5.45131 23.142 5.76091 23.5869 5.88325 24.0965L8.58536 34.1647C8.2584 35.0348 8.25145 35.9928 8.56576 36.8676C8.88006 37.7423 9.49515 38.4769 10.3011 38.9399L15.9426 42.1972C16.0546 42.2629 16.1784 42.3057 16.3071 42.3233C16.4357 42.3409 16.5665 42.3329 16.692 42.2997C16.8175 42.2665 16.9352 42.2088 17.0384 42.13C17.1415 42.0511 17.228 41.9526 17.2929 41.8402C17.3578 41.7278 17.3998 41.6036 17.4166 41.4749C17.4333 41.3461 17.4244 41.2154 17.3904 41.0901C17.3564 40.9648 17.2979 40.8475 17.2184 40.7449C17.1389 40.6423 17.0398 40.5564 16.927 40.4923L11.2855 37.2389C10.9008 37.0185 10.602 36.6742 10.4379 36.2623C10.2738 35.8504 10.254 35.3951 10.3817 34.9704C10.5095 34.5458 10.7772 34.177 11.1413 33.924C11.5054 33.6709 11.9445 33.5487 12.387 33.577H12.3949C12.6949 33.5924 12.9872 33.6777 13.2483 33.8261L21.9502 38.9271C22.9853 39.5366 23.8438 40.4053 24.441 41.4475C25.0382 42.4897 25.3536 43.6696 25.3562 44.8708V57.0938C25.3562 57.3548 25.4599 57.6052 25.6445 57.7898C25.8291 57.9744 26.0795 58.0781 26.3405 58.0781C26.6016 58.0781 26.852 57.9744 27.0366 57.7898C27.2212 57.6052 27.3249 57.3548 27.3249 57.0938V44.8708C27.3217 43.3263 26.9162 41.8093 26.1485 40.4692C25.3807 39.1291 24.2771 38.012 22.9464 37.2281ZM10.1121 32.2619L7.78408 23.5905C7.56612 22.7288 7.07229 21.9621 6.3779 21.4072C5.68351 20.8523 4.82669 20.5398 3.93812 20.5173V20.5045C3.93926 20.0545 4.09452 19.6185 4.37805 19.2691C4.66159 18.9196 5.05627 18.6778 5.49639 18.584C6.01712 18.504 6.54887 18.6231 6.98577 18.9175C7.42266 19.2119 7.73263 19.6601 7.85397 20.1728L11.1378 31.7756C10.7742 31.8871 10.4286 32.0509 10.1121 32.2619Z" fill="#FD3B3B"/>
<path d="M36.7827 32.9559C37.0931 32.9532 37.3984 32.8776 37.6742 32.7352C37.95 32.5928 38.1885 32.3877 38.3705 32.1363C38.5524 31.8849 38.6728 31.5942 38.7219 31.2877C38.771 30.9813 38.7474 30.6676 38.653 30.3719L36.2344 22.9281L42.5659 18.3271C42.902 18.0829 43.1522 17.7386 43.2808 17.3436C43.4093 16.9485 43.4096 16.5229 43.2816 16.1277C43.1536 15.7324 42.9038 15.3878 42.568 15.1432C42.2322 14.8985 41.8277 14.7664 41.4122 14.7656H33.5845L31.1639 7.32178C31.0344 6.9279 30.7839 6.58494 30.4481 6.34181C30.1122 6.09867 29.7082 5.96777 29.2936 5.96777C28.879 5.96777 28.4749 6.09867 28.1391 6.34181C27.8032 6.58494 27.5527 6.9279 27.4233 7.32178L25.0027 14.7656H17.1749C16.7592 14.7658 16.3542 14.8975 16.018 15.1419C15.6817 15.3863 15.4315 15.7309 15.3031 16.1263C15.1747 16.5216 15.1747 16.9475 15.3032 17.3429C15.4317 17.7382 15.682 18.0827 16.0183 18.3271L22.3498 22.9281L19.9312 30.3719C19.8026 30.7674 19.8026 31.1934 19.9311 31.5888C20.0596 31.9843 20.31 32.3289 20.6464 32.5733C20.9828 32.8177 21.388 32.9493 21.8038 32.9492C22.2196 32.9492 22.6247 32.8175 22.9611 32.573L29.2936 27.973L35.6261 32.573C35.9611 32.8204 36.3662 32.9545 36.7827 32.9559ZM29.2936 26.0023C28.8776 26.0025 28.4723 26.1345 28.1359 26.3793L21.8044 30.9802L24.2231 23.5364C24.3515 23.141 24.3514 22.715 24.2228 22.3196C24.0943 21.9242 23.8438 21.5797 23.5074 21.3353L17.1749 16.7344H25.0027C25.4181 16.7339 25.8227 16.6021 26.1587 16.3578C26.4946 16.1134 26.7446 15.769 26.873 15.374L29.2936 7.91733V7.93012L31.7122 15.374C31.8406 15.7694 32.091 16.1139 32.4273 16.3583C32.7637 16.6027 33.1687 16.7343 33.5845 16.7344H41.4122L35.0807 21.3344C34.7439 21.5786 34.4931 21.9233 34.3644 22.3189C34.2357 22.7145 34.2355 23.1407 34.3641 23.5364L36.7827 30.9802L30.4512 26.3812C30.1151 26.1357 29.7098 26.003 29.2936 26.0023Z" fill="#FD3B3B"/>
<path d="M12.6045 11.1884L14.3084 12.1728C14.4204 12.2384 14.5443 12.2813 14.6729 12.2989C14.8015 12.3165 14.9324 12.3084 15.0579 12.2753C15.1834 12.2421 15.3011 12.1844 15.4042 12.1055C15.5073 12.0267 15.5938 11.9282 15.6587 11.8158C15.7236 11.7033 15.7657 11.5792 15.7824 11.4505C15.7991 11.3217 15.7903 11.1909 15.7562 11.0657C15.7222 10.9404 15.6638 10.8231 15.5842 10.7205C15.5047 10.6179 15.4056 10.532 15.2928 10.4678L13.5888 9.48347C13.3629 9.35499 13.0952 9.32111 12.8444 9.38922C12.5935 9.45732 12.3798 9.62189 12.2498 9.847C12.1198 10.0721 12.0842 10.3395 12.1506 10.5908C12.2171 10.8421 12.3802 11.0569 12.6045 11.1884Z" fill="#FD3B3B"/>
<path d="M43.7876 12.3047C43.9604 12.3047 44.1301 12.2592 44.2797 12.1728L45.9837 11.1884C46.2079 11.0569 46.3711 10.8421 46.4375 10.5908C46.504 10.3395 46.4683 10.0721 46.3383 9.847C46.2084 9.62189 45.9946 9.45732 45.7438 9.38922C45.4929 9.32111 45.2253 9.35499 44.9993 9.48347L43.2954 10.4678C43.1077 10.5762 42.9611 10.7434 42.8781 10.9436C42.7952 11.1438 42.7807 11.3658 42.8368 11.5751C42.8928 11.7844 43.0164 11.9693 43.1883 12.1013C43.3602 12.2332 43.5709 12.3047 43.7876 12.3047Z" fill="#FD3B3B"/>
</svg>
