<svg width="56" height="60" viewBox="0 0 56 60" fill="none" xmlns="http://www.w3.org/2000/svg">
<path d="M41.3438 40.3594H46.1387C47.5808 40.3591 48.9878 39.9147 50.1683 39.0865C51.3489 38.2582 52.2457 37.0865 52.7367 35.7306C53.2277 34.3746 53.2891 32.9004 52.9126 31.5083C52.5361 30.1162 51.7399 28.8739 50.6323 27.9503L42.6333 21.2842C41.394 20.2535 39.8332 19.6887 38.2213 19.6875H16.9037C15.2918 19.6887 13.7311 20.2535 12.4918 21.2842L4.49272 27.9503C3.38516 28.8739 2.58896 30.1162 2.21244 31.5083C1.83592 32.9004 1.89735 34.3746 2.38837 35.7306C2.87939 37.0865 3.77617 38.2582 4.95672 39.0865C6.13728 39.9147 7.54429 40.3591 8.98639 40.3594H13.7813C13.7826 42.2949 14.197 44.2078 14.997 45.9703C14.7245 46.7119 14.6918 47.5204 14.9035 48.2816L5.94566 44.1817C5.30585 43.8897 4.60299 43.763 3.9015 43.8132C3.20001 43.8634 2.52235 44.0889 1.93063 44.469C1.33892 44.8491 0.852095 45.3717 0.514788 45.9888C0.177481 46.6059 0.000485982 47.2978 3.09427e-05 48.0011V48.2147C-0.00297437 48.9959 0.212995 49.7622 0.623442 50.4269C1.03389 51.0915 1.62238 51.6278 2.32217 51.975L13.8 57.7139C15.5781 58.5989 17.5369 59.0605 19.5231 59.0625H55.125V57.0938H41.3438V45.2813H55.125V43.3125H41.0229C41.2362 42.3426 41.3438 41.3525 41.3438 40.3594ZM39.375 57.0938H19.5231C17.8422 57.0918 16.1845 56.7007 14.68 55.9509L3.20319 50.212C2.83129 50.0278 2.51849 49.743 2.30029 49.3899C2.08209 49.0369 1.96725 48.6297 1.96878 48.2147V48.0011C1.9678 47.6265 2.06119 47.2578 2.24032 46.9289C2.41946 46.5999 2.67857 46.3214 2.99374 46.1191C3.30891 45.9167 3.66997 45.797 4.04361 45.771C4.41725 45.745 4.79142 45.8136 5.13158 45.9703L16.3249 51.0969C16.4532 51.1564 16.593 51.1873 16.7344 51.1875H26.5782C26.8392 51.1875 27.0896 51.0838 27.2742 50.8992C27.4588 50.7146 27.5625 50.4642 27.5625 50.2031C27.5625 49.9421 27.4588 49.6917 27.2742 49.5071C27.0896 49.3225 26.8392 49.2188 26.5782 49.2188H18.7032C18.181 49.2188 17.6803 49.0113 17.311 48.6421C16.9418 48.2729 16.7344 47.7721 16.7344 47.25C16.7344 46.7279 16.9418 46.2271 17.311 45.8579C17.6803 45.4887 18.181 45.2813 18.7032 45.2813H26.2504C26.4156 45.2814 26.5781 45.2398 26.7229 45.1602L26.9719 45.0233C28.8677 43.98 30.9919 43.4211 33.1557 43.3964C35.3195 43.3716 37.4559 43.8818 39.375 44.8816V57.0938ZM15.75 40.3594H17.7188C17.7214 41.3792 17.8811 42.3925 18.1923 43.3637C17.5307 43.4484 16.9019 43.7016 16.3662 44.099C15.9585 42.8944 15.7503 41.6312 15.75 40.3594ZM30.369 40.4706L33.769 37.9231C34.0976 38.7056 34.6696 39.3614 35.4001 39.7934C35.4129 39.9824 35.4375 40.1871 35.4375 40.3613C35.4356 40.7646 35.4026 41.167 35.3391 41.5652C33.7232 41.3462 32.0824 41.3917 30.4812 41.7001C30.4997 41.5821 30.5112 41.4631 30.5157 41.3438C30.5115 41.0469 30.4621 40.7525 30.369 40.4706ZM27.5625 38.3906C26.9811 38.3894 26.4125 38.5607 25.9285 38.8828L21.5756 35.6226C21.5569 35.533 21.5195 35.4523 21.4948 35.3647C22.2286 34.4635 23.1539 33.7372 24.2034 33.2383C25.253 32.7394 26.4004 32.4806 27.5625 32.4806C28.7246 32.4806 29.8721 32.7394 30.9217 33.2383C31.9712 33.7372 32.8965 34.4635 33.6302 35.3647C33.6056 35.4523 33.5682 35.533 33.5495 35.6226L29.1966 38.8828C28.7126 38.5607 28.1439 38.3894 27.5625 38.3906ZM28.5469 41.3438C28.5469 41.5384 28.4892 41.7288 28.381 41.8906C28.2728 42.0525 28.1191 42.1787 27.9392 42.2532C27.7594 42.3277 27.5614 42.3472 27.3705 42.3092C27.1795 42.2712 27.0041 42.1775 26.8665 42.0398C26.7288 41.9021 26.6351 41.7267 26.5971 41.5358C26.5591 41.3448 26.5786 41.1469 26.6531 40.9671C26.7276 40.7872 26.8538 40.6334 27.0156 40.5253C27.1775 40.4171 27.3678 40.3594 27.5625 40.3594C27.8236 40.3594 28.074 40.4631 28.2586 40.6477C28.4432 40.8323 28.5469 41.0827 28.5469 41.3438ZM34.6884 33.5849C33.7719 32.6155 32.6672 31.8432 31.442 31.3155C30.2167 30.7877 28.8966 30.5155 27.5625 30.5155C26.2284 30.5155 24.9084 30.7877 23.6831 31.3155C22.4578 31.8432 21.3532 32.6155 20.4366 33.5849C19.941 33.1116 19.3302 32.7763 18.6648 32.6123C19.7696 31.3362 21.136 30.3127 22.6712 29.6112C24.2064 28.9097 25.8746 28.5466 27.5625 28.5466C29.2504 28.5466 30.9186 28.9097 32.4539 29.6112C33.9891 30.3127 35.3555 31.3362 36.4603 32.6123C35.7949 32.7763 35.184 33.1116 34.6884 33.5849ZM21.361 37.9231L24.761 40.4706C24.5993 40.9531 24.5705 41.4703 24.6777 41.9678C24.785 42.4653 25.0242 42.9247 25.3703 43.2977L20.2713 43.3125C19.8888 42.3748 19.6906 41.3721 19.6875 40.3594C19.6875 40.1822 19.7121 39.9804 19.7249 39.7914C20.457 39.3607 21.0307 38.7056 21.361 37.9231ZM39.1565 42.6077C38.5418 42.3491 37.9107 42.1311 37.2675 41.955C37.3568 41.4278 37.4032 40.8941 37.4063 40.3594H39.375C39.3725 41.1142 39.2976 41.8671 39.1516 42.6077H39.1565ZM37.4063 38.3906C36.8841 38.3906 36.3834 38.1832 36.0142 37.814C35.645 37.4448 35.4375 36.944 35.4375 36.4219C35.4375 35.8997 35.645 35.399 36.0142 35.0298C36.3834 34.6605 36.8841 34.4531 37.4063 34.4531H46.2657C46.4682 34.4535 46.6659 34.3913 46.8319 34.2752C46.9978 34.159 47.1239 33.9945 47.1929 33.8041C47.2619 33.6137 47.2705 33.4066 47.2174 33.2111C47.1644 33.0156 47.0524 32.8412 46.8966 32.7118L40.9904 27.7899C40.8466 27.6698 40.6716 27.5933 40.4858 27.5692C40.3001 27.5452 40.1113 27.5746 39.9417 27.6541C39.7721 27.7336 39.6287 27.8598 39.5283 28.0179C39.4279 28.1761 39.3748 28.3596 39.375 28.5469V32.4844H38.8385C37.5762 30.662 35.8909 29.1728 33.9271 28.1442C31.9633 27.1156 29.7794 26.5783 27.5625 26.5783C25.3456 26.5783 23.1618 27.1156 21.198 28.1442C19.2342 29.1728 17.5489 30.662 16.2865 32.4844H15.75V28.5469C15.7503 28.3596 15.6971 28.1761 15.5968 28.0179C15.4964 27.8598 15.353 27.7336 15.1834 27.6541C15.0138 27.5746 14.825 27.5452 14.6392 27.5692C14.4535 27.5933 14.2784 27.6698 14.1347 27.7899L8.22842 32.7118C8.07266 32.8412 7.96064 33.0156 7.90762 33.2111C7.85461 33.4066 7.86319 33.6137 7.93219 33.8041C8.00119 33.9945 8.12726 34.159 8.2932 34.2752C8.45913 34.3913 8.65686 34.4535 8.85941 34.4531H17.7188C18.2409 34.4531 18.7417 34.6605 19.1109 35.0298C19.4801 35.399 19.6875 35.8997 19.6875 36.4219C19.6875 36.944 19.4801 37.4448 19.1109 37.814C18.7417 38.1832 18.2409 38.3906 17.7188 38.3906H8.98639C7.94889 38.3905 6.93663 38.0707 6.08733 37.4748C5.23802 36.8789 4.59291 36.0359 4.23976 35.0603C3.88661 34.0848 3.84257 33.0241 4.11364 32.0227C4.3847 31.0212 4.9577 30.1276 5.75469 29.4633L13.7537 22.7971C14.638 22.0602 15.7526 21.6565 16.9037 21.6563H38.2213C39.3724 21.6565 40.4871 22.0602 41.3713 22.7971L49.3704 29.4633C50.1674 30.1276 50.7404 31.0212 51.0114 32.0227C51.2825 33.0241 51.2384 34.0848 50.8853 35.0603C50.5322 36.0359 49.887 36.8789 49.0377 37.4748C48.1884 38.0707 47.1762 38.3905 46.1387 38.3906H37.4063ZM41.3438 32.4844V30.6485L43.5468 32.4844H41.3438ZM13.7813 30.6485V32.4844H11.5782L13.7813 30.6485Z" fill="#FD3B3B"/>
<path d="M45.2812 53.1563H43.3125V55.125H45.2812V53.1563Z" fill="#FD3B3B"/>
<path d="M36.4219 8.85938C36.4219 7.10716 35.9023 5.39429 34.9288 3.93737C33.9553 2.48046 32.5717 1.34493 30.9528 0.674384C29.334 0.00383858 27.5527 -0.171607 25.8341 0.170234C24.1156 0.512075 22.537 1.35585 21.298 2.59485C20.059 3.83386 19.2152 5.41245 18.8734 7.131C18.5315 8.84955 18.707 10.6309 19.3775 12.2497C20.0481 13.8686 21.1836 15.2522 22.6405 16.2257C24.0974 17.1992 25.8103 17.7188 27.5625 17.7188C29.9114 17.7161 32.1633 16.7819 33.8242 15.121C35.485 13.4601 36.4193 11.2082 36.4219 8.85938ZM20.6719 8.85938C20.6719 7.49654 21.076 6.16431 21.8332 5.03115C22.5903 3.898 23.6665 3.01481 24.9256 2.49327C26.1847 1.97174 27.5701 1.83528 28.9068 2.10116C30.2434 2.36703 31.4712 3.0233 32.4349 3.98697C33.3986 4.95064 34.0549 6.17843 34.3207 7.51509C34.5866 8.85174 34.4501 10.2372 33.9286 11.4963C33.4071 12.7554 32.5239 13.8316 31.3907 14.5887C30.2576 15.3459 28.9253 15.75 27.5625 15.75C25.7357 15.7477 23.9844 15.0209 22.6927 13.7292C21.401 12.4375 20.6742 10.6862 20.6719 8.85938Z" fill="#FD3B3B"/>
</svg>
