<svg width="63" height="63" viewBox="0 0 63 63" fill="none" xmlns="http://www.w3.org/2000/svg">
<g clip-path="url(#clip0_8068_128)">
<path d="M18.1987 40.95H44.0066C44.3654 40.9505 44.7183 40.8591 45.0317 40.6845C45.3452 40.5099 45.6086 40.2579 45.797 39.9526C45.9854 39.6472 46.0924 39.2987 46.1078 38.9403C46.1232 38.5818 46.0465 38.2254 45.8851 37.905L42.5534 31.2501C42.122 30.3757 41.4535 29.6401 40.6242 29.1274C39.7949 28.6146 38.8381 28.3452 37.8631 28.35H24.8221C23.8976 28.3509 22.9896 28.5954 22.1896 29.0588C21.3896 29.5222 20.7258 30.1882 20.2651 30.9897L16.3738 37.8147C16.1928 38.134 16.0987 38.4952 16.1009 38.8622C16.103 39.2292 16.2013 39.5892 16.3859 39.9064C16.5705 40.2236 16.835 40.4869 17.1531 40.67C17.4712 40.8531 17.8317 40.9496 18.1987 40.95ZM32.5501 30.45H37.8631C38.4476 30.4474 39.021 30.6092 39.5179 30.9171C40.0148 31.2249 40.415 31.6664 40.6729 32.1909L44.0119 38.85H32.5501V30.45ZM22.09 32.0324C22.3659 31.5515 22.7638 31.152 23.2435 30.8742C23.7232 30.5963 24.2677 30.45 24.8221 30.45H30.4501V38.85H18.1987L22.09 32.0324Z" fill="#FD3B3B"/>
<path d="M35.7 43.05H33.6C33.3216 43.05 33.0545 43.1606 32.8576 43.3575C32.6607 43.5544 32.55 43.8215 32.55 44.1C32.55 44.3785 32.6607 44.6455 32.8576 44.8425C33.0545 45.0394 33.3216 45.15 33.6 45.15H35.7C35.9785 45.15 36.2456 45.0394 36.4425 44.8425C36.6394 44.6455 36.75 44.3785 36.75 44.1C36.75 43.8215 36.6394 43.5544 36.4425 43.3575C36.2456 43.1606 35.9785 43.05 35.7 43.05Z" fill="#FD3B3B"/>
<path d="M21.0001 43.05H18.9001C18.6216 43.05 18.3545 43.1606 18.1576 43.3575C17.9607 43.5544 17.8501 43.8215 17.8501 44.1C17.8501 44.3785 17.9607 44.6455 18.1576 44.8425C18.3545 45.0394 18.6216 45.15 18.9001 45.15H21.0001C21.2786 45.15 21.5456 45.0394 21.7426 44.8425C21.9395 44.6455 22.0501 44.3785 22.0501 44.1C22.0501 43.8215 21.9395 43.5544 21.7426 43.3575C21.5456 43.1606 21.2786 43.05 21.0001 43.05Z" fill="#FD3B3B"/>
<path d="M14.7001 52.5C14.077 52.5 13.468 52.6847 12.95 53.0309C12.432 53.377 12.0282 53.869 11.7898 54.4446C11.5514 55.0201 11.489 55.6535 11.6106 56.2645C11.7321 56.8756 12.0321 57.4369 12.4727 57.8774C12.9132 58.3179 13.4745 58.6179 14.0855 58.7395C14.6966 58.861 15.3299 58.7986 15.9055 58.5602C16.4811 58.3218 16.9731 57.9181 17.3192 57.4C17.6653 56.882 17.8501 56.273 17.8501 55.65C17.8501 54.8146 17.5182 54.0134 16.9274 53.4226C16.3367 52.8319 15.5355 52.5 14.7001 52.5ZM14.7001 56.7C14.4924 56.7 14.2894 56.6384 14.1167 56.523C13.944 56.4077 13.8094 56.2437 13.73 56.0518C13.6505 55.86 13.6297 55.6488 13.6702 55.4452C13.7107 55.2415 13.8107 55.0544 13.9576 54.9075C14.1044 54.7607 14.2915 54.6607 14.4952 54.6202C14.6989 54.5797 14.91 54.6005 15.1019 54.6799C15.2937 54.7594 15.4577 54.894 15.5731 55.0667C15.6885 55.2393 15.7501 55.4423 15.7501 55.65C15.7501 55.9285 15.6394 56.1956 15.4425 56.3925C15.2456 56.5894 14.9785 56.7 14.7001 56.7Z" fill="#FD3B3B"/>
<path d="M47.2501 52.5C46.6271 52.5 46.0181 52.6847 45.5001 53.0309C44.982 53.377 44.5783 53.869 44.3399 54.4446C44.1015 55.0201 44.0391 55.6535 44.1606 56.2645C44.2822 56.8756 44.5822 57.4369 45.0227 57.8774C45.4632 58.3179 46.0245 58.6179 46.6356 58.7395C47.2466 58.861 47.88 58.7986 48.4555 58.5602C49.0311 58.3218 49.5231 57.9181 49.8692 57.4C50.2154 56.882 50.4001 56.273 50.4001 55.65C50.4001 54.8146 50.0682 54.0134 49.4775 53.4226C48.8867 52.8319 48.0855 52.5 47.2501 52.5ZM47.2501 56.7C47.0424 56.7 46.8394 56.6384 46.6668 56.523C46.4941 56.4077 46.3595 56.2437 46.28 56.0518C46.2006 55.86 46.1798 55.6488 46.2203 55.4452C46.2608 55.2415 46.3608 55.0544 46.5076 54.9075C46.6545 54.7607 46.8416 54.6607 47.0453 54.6202C47.2489 54.5797 47.4601 54.6005 47.6519 54.6799C47.8438 54.7594 48.0078 54.894 48.1231 55.0667C48.2385 55.2393 48.3001 55.4423 48.3001 55.65C48.3001 55.9285 48.1895 56.1956 47.9926 56.3925C47.7956 56.5894 47.5286 56.7 47.2501 56.7Z" fill="#FD3B3B"/>
<path d="M18.9001 12.6C18.9001 11.354 18.5306 10.1359 17.8383 9.09991C17.1461 8.06388 16.1621 7.25639 15.011 6.77956C13.8598 6.30273 12.5931 6.17796 11.371 6.42105C10.1489 6.66414 9.02635 7.26416 8.14528 8.14523C7.26421 9.0263 6.66419 10.1488 6.4211 11.3709C6.17802 12.593 6.30278 13.8597 6.77961 15.0109C7.25644 16.1621 8.06393 17.146 9.09996 17.8383C10.136 18.5305 11.354 18.9 12.6001 18.9C14.2704 18.8983 15.8719 18.234 17.053 17.0529C18.2341 15.8718 18.8984 14.2704 18.9001 12.6ZM12.6001 16.8C11.7694 16.8 10.9573 16.5537 10.2667 16.0922C9.57597 15.6307 9.03765 14.9747 8.71976 14.2073C8.40187 13.4398 8.3187 12.5953 8.48075 11.7806C8.64281 10.9659 9.04282 10.2175 9.6302 9.63015C10.2176 9.04277 10.966 8.64276 11.7807 8.4807C12.5954 8.31864 13.4399 8.40182 14.2073 8.7197C14.9748 9.03759 15.6307 9.57592 16.0922 10.2666C16.5537 10.9573 16.8001 11.7693 16.8001 12.6C16.8001 13.7139 16.3576 14.7822 15.5699 15.5698C14.7822 16.3575 13.714 16.8 12.6001 16.8Z" fill="#FD3B3B"/>
<path d="M12.6 4.2C12.8785 4.2 13.1456 4.08937 13.3425 3.89246C13.5394 3.69555 13.65 3.42848 13.65 3.15V1.05C13.65 0.771521 13.5394 0.504449 13.3425 0.307536C13.1456 0.110623 12.8785 -1.90735e-06 12.6 -1.90735e-06C12.3216 -1.90735e-06 12.0545 0.110623 11.8576 0.307536C11.6607 0.504449 11.55 0.771521 11.55 1.05V3.15C11.55 3.42848 11.6607 3.69555 11.8576 3.89246C12.0545 4.08937 12.3216 4.2 12.6 4.2Z" fill="#FD3B3B"/>
<path d="M6.96567 4.9413C7.10589 5.1805 7.33504 5.35452 7.6031 5.42539C7.87116 5.49626 8.15637 5.45823 8.3965 5.31959C8.63662 5.18095 8.81216 4.95296 8.8848 4.68538C8.95745 4.41779 8.92131 4.13233 8.78427 3.8913L7.73427 2.0727C7.66583 1.95232 7.57425 1.84667 7.46481 1.76183C7.35537 1.67699 7.23023 1.61463 7.09659 1.57835C6.96296 1.54207 6.82346 1.53258 6.68615 1.55043C6.54883 1.56827 6.41639 1.61311 6.29647 1.68235C6.17655 1.75159 6.07151 1.84386 5.9874 1.95386C5.90328 2.06386 5.84176 2.18941 5.80636 2.32329C5.77097 2.45716 5.7624 2.59671 5.78116 2.73391C5.79992 2.87111 5.84563 3.00324 5.91567 3.1227L6.96567 4.9413Z" fill="#FD3B3B"/>
<path d="M2.07278 7.7343L3.89138 8.7843C4.01084 8.85433 4.14297 8.90004 4.28017 8.9188C4.41737 8.93756 4.55692 8.929 4.69079 8.8936C4.82467 8.85821 4.95022 8.79668 5.06022 8.71257C5.17022 8.62846 5.26249 8.52341 5.33173 8.40349C5.40097 8.28357 5.4458 8.15114 5.46365 8.01382C5.4815 7.8765 5.47201 7.73701 5.43573 7.60337C5.39945 7.46974 5.33709 7.34459 5.25225 7.23516C5.16741 7.12572 5.06176 7.03414 4.94138 6.9657L3.12278 5.9157C3.00332 5.84567 2.87119 5.79995 2.73399 5.7812C2.59679 5.76244 2.45724 5.771 2.32337 5.80639C2.18949 5.84179 2.06394 5.90331 1.95394 5.98743C1.84394 6.07154 1.75167 6.17658 1.68243 6.2965C1.61319 6.41643 1.56836 6.54886 1.55051 6.68618C1.53266 6.8235 1.54215 6.96299 1.57843 7.09663C1.61471 7.23026 1.67707 7.3554 1.76191 7.46484C1.84675 7.57428 1.9524 7.66586 2.07278 7.7343Z" fill="#FD3B3B"/>
<path d="M1.05 13.65H3.15C3.42848 13.65 3.69555 13.5394 3.89246 13.3425C4.08938 13.1455 4.2 12.8785 4.2 12.6C4.2 12.3215 4.08938 12.0545 3.89246 11.8575C3.69555 11.6606 3.42848 11.55 3.15 11.55H1.05C0.771523 11.55 0.504451 11.6606 0.307538 11.8575C0.110625 12.0545 0 12.3215 0 12.6C0 12.8785 0.110625 13.1455 0.307538 13.3425C0.504451 13.5394 0.771523 13.65 1.05 13.65Z" fill="#FD3B3B"/>
<path d="M3.89138 16.4157L2.07278 17.4657C1.9524 17.5341 1.84675 17.6257 1.76191 17.7352C1.67707 17.8446 1.61471 17.9697 1.57843 18.1034C1.54215 18.237 1.53266 18.3765 1.55051 18.5138C1.56836 18.6511 1.61319 18.7836 1.68243 18.9035C1.75167 19.0234 1.84394 19.1285 1.95394 19.2126C2.06394 19.2967 2.18949 19.3582 2.32337 19.3936C2.45724 19.429 2.59679 19.4376 2.73399 19.4188C2.87119 19.4 3.00332 19.3543 3.12278 19.2843L4.94138 18.2343C5.06176 18.1659 5.16741 18.0743 5.25225 17.9648C5.33709 17.8554 5.39945 17.7303 5.43573 17.5966C5.47201 17.463 5.4815 17.3235 5.46365 17.1862C5.4458 17.0489 5.40097 16.9164 5.33173 16.7965C5.26249 16.6766 5.17022 16.5715 5.06022 16.4874C4.95022 16.4033 4.82467 16.3418 4.69079 16.3064C4.55692 16.271 4.41737 16.2624 4.28017 16.2812C4.14297 16.3 4.01084 16.3457 3.89138 16.4157Z" fill="#FD3B3B"/>
<path d="M6.30008 23.5126C6.41956 23.5815 6.55143 23.6262 6.68818 23.6442C6.82493 23.6621 6.96387 23.6529 7.09706 23.6171C7.23025 23.5813 7.35509 23.5196 7.46444 23.4356C7.5738 23.3516 7.66552 23.2468 7.73438 23.1273L8.78438 21.3087C8.92142 21.0677 8.95757 20.7822 8.88492 20.5146C8.81227 20.247 8.63673 20.019 8.39661 19.8804C8.15649 19.7418 7.87128 19.7037 7.60322 19.7746C7.33516 19.8455 7.10601 20.0195 6.96578 20.2587L5.91578 22.0773C5.84668 22.1968 5.8018 22.3287 5.78371 22.4655C5.76563 22.6023 5.77469 22.7413 5.81038 22.8746C5.84608 23.0079 5.9077 23.1329 5.99172 23.2424C6.07575 23.3519 6.18053 23.4437 6.30008 23.5126Z" fill="#FD3B3B"/>
<path d="M11.55 22.05V24.15C11.55 24.4285 11.6607 24.6955 11.8576 24.8925C12.0545 25.0894 12.3216 25.2 12.6 25.2C12.8785 25.2 13.1456 25.0894 13.3425 24.8925C13.5394 24.6955 13.65 24.4285 13.65 24.15V22.05C13.65 21.7715 13.5394 21.5044 13.3425 21.3075C13.1456 21.1106 12.8785 21 12.6 21C12.3216 21 12.0545 21.1106 11.8576 21.3075C11.6607 21.5044 11.55 21.7715 11.55 22.05Z" fill="#FD3B3B"/>
<path d="M16.8001 5.3256C17.0413 5.46483 17.3279 5.50256 17.5969 5.43049C17.8658 5.35842 18.0952 5.18246 18.2344 4.9413L19.2844 3.1227C19.3544 3.00324 19.4002 2.87111 19.4189 2.73391C19.4377 2.59671 19.4291 2.45716 19.3937 2.32329C19.3583 2.18941 19.2968 2.06386 19.2127 1.95386C19.1286 1.84386 19.0235 1.75159 18.9036 1.68235C18.7837 1.61311 18.6513 1.56827 18.5139 1.55043C18.3766 1.53258 18.2371 1.54207 18.1035 1.57835C17.9699 1.61463 17.8447 1.67699 17.7353 1.76183C17.6258 1.84667 17.5343 1.95232 17.4658 2.0727L16.4158 3.8913C16.2766 4.13246 16.2389 4.41906 16.3109 4.68804C16.383 4.95702 16.559 5.18636 16.8001 5.3256Z" fill="#FD3B3B"/>
<path d="M20.7899 8.925C20.9743 8.92539 21.1555 8.87684 21.3149 8.7843L23.1335 7.7343C23.2539 7.66586 23.3596 7.57428 23.4444 7.46484C23.5293 7.3554 23.5916 7.23026 23.6279 7.09663C23.6642 6.96299 23.6737 6.8235 23.6558 6.68618C23.638 6.54886 23.5931 6.41643 23.5239 6.2965C23.4547 6.17658 23.3624 6.07154 23.2524 5.98743C23.1424 5.90331 23.0168 5.84179 22.883 5.80639C22.7491 5.771 22.6095 5.76244 22.4723 5.7812C22.3351 5.79995 22.203 5.84567 22.0835 5.9157L20.2649 6.9657C20.0648 7.08127 19.9084 7.25967 19.8199 7.47321C19.7315 7.68675 19.7159 7.92351 19.7758 8.14676C19.8356 8.37002 19.9674 8.5673 20.1508 8.70801C20.3341 8.84871 20.5588 8.92499 20.7899 8.925Z" fill="#FD3B3B"/>
<path d="M21 12.6C21 12.8785 21.1106 13.1455 21.3075 13.3425C21.5045 13.5394 21.7715 13.65 22.05 13.65H24.15C24.4285 13.65 24.6955 13.5394 24.8925 13.3425C25.0894 13.1455 25.2 12.8785 25.2 12.6C25.2 12.3215 25.0894 12.0545 24.8925 11.8575C24.6955 11.6606 24.4285 11.55 24.15 11.55H22.05C21.7715 11.55 21.5045 11.6606 21.3075 11.8575C21.1106 12.0545 21 12.3215 21 12.6Z" fill="#FD3B3B"/>
<path d="M20.2587 18.2343L22.0773 19.2843C22.1968 19.3543 22.3289 19.4 22.4661 19.4188C22.6033 19.4376 22.7429 19.429 22.8767 19.3936C23.0106 19.3582 23.1362 19.2967 23.2462 19.2126C23.3562 19.1285 23.4484 19.0234 23.5177 18.9035C23.5869 18.7836 23.6317 18.6511 23.6496 18.5138C23.6674 18.3765 23.6579 18.237 23.6217 18.1034C23.5854 17.9697 23.523 17.8446 23.4382 17.7352C23.3533 17.6257 23.2477 17.5341 23.1273 17.4657L21.3087 16.4157C21.0677 16.2787 20.7822 16.2425 20.5146 16.3152C20.2471 16.3878 20.0191 16.5633 19.8804 16.8035C19.7418 17.0436 19.7038 17.3288 19.7746 17.5969C19.8455 17.8649 20.0195 18.0941 20.2587 18.2343Z" fill="#FD3B3B"/>
<path d="M17.4658 23.1273C17.5342 23.2477 17.6258 23.3533 17.7352 23.4382C17.8447 23.523 17.9698 23.5854 18.1035 23.6216C18.2371 23.6579 18.3766 23.6674 18.5139 23.6496C18.6512 23.6317 18.7837 23.5869 18.9036 23.5177C19.0235 23.4484 19.1285 23.3561 19.2127 23.2461C19.2968 23.1361 19.3583 23.0106 19.3937 22.8767C19.4291 22.7428 19.4376 22.6033 19.4189 22.4661C19.4001 22.3289 19.3544 22.1968 19.2844 22.0773L18.2344 20.2587C18.0942 20.0195 17.865 19.8455 17.5969 19.7746C17.3289 19.7037 17.0437 19.7418 16.8036 19.8804C16.5634 20.019 16.3879 20.247 16.3152 20.5146C16.2426 20.7822 16.2787 21.0677 16.4158 21.3087L17.4658 23.1273Z" fill="#FD3B3B"/>
<path d="M60.9 15.9275C60.9 15.8686 60.9053 15.8099 60.9053 15.75C60.9012 15.3138 60.8074 14.8832 60.6296 14.4849C60.4519 14.0866 60.194 13.7291 59.8721 13.4348C59.5502 13.1405 59.1711 12.9156 58.7585 12.7741C58.346 12.6327 57.9086 12.5777 57.4739 12.6126C57.1097 11.5557 56.3819 10.6625 55.4203 10.0923C54.4587 9.52224 53.3258 9.3123 52.2238 9.49999C51.1218 9.68768 50.1222 10.2608 49.4036 11.1171C48.6849 11.9733 48.2938 13.0571 48.3 14.175C48.3 14.3614 48.3116 14.5476 48.3347 14.7326C47.4104 14.8564 46.5678 15.327 45.9775 16.0489C45.3873 16.7709 45.0936 17.6903 45.1559 18.6207C45.2183 19.5512 45.632 20.4231 46.3133 21.0599C46.9946 21.6966 47.8925 22.0506 48.825 22.05H59.85C60.5945 22.0518 61.3155 21.7899 61.8852 21.3108C62.4549 20.8316 62.8366 20.1662 62.9624 19.4325C63.0882 18.6987 62.9501 17.9442 62.5726 17.3025C62.1951 16.6609 61.6025 16.1738 60.9 15.9275ZM59.85 19.95H48.825C48.592 19.9504 48.3619 19.8991 48.1511 19.7998C47.9404 19.7005 47.7542 19.5557 47.6062 19.3758C47.4581 19.1959 47.3519 18.9855 47.295 18.7595C47.2381 18.5336 47.232 18.2979 47.2773 18.0693C47.3225 17.8408 47.4178 17.6251 47.5565 17.4378C47.6951 17.2506 47.8735 17.0964 48.0789 16.9865C48.2843 16.8765 48.5116 16.8135 48.7443 16.8019C48.9769 16.7904 49.2093 16.8306 49.4246 16.9197C49.6258 17.0027 49.8478 17.0211 50.06 16.9723C50.2721 16.9236 50.4638 16.8101 50.6086 16.6477C50.7535 16.4852 50.8442 16.2817 50.8684 16.0654C50.8925 15.8491 50.8488 15.6307 50.7434 15.4403C50.5223 15.0549 50.404 14.6192 50.4 14.175C50.3975 13.493 50.6614 12.837 51.1354 12.3467C51.6094 11.8564 52.2562 11.5705 52.9378 11.55C53.6195 11.5294 54.2823 11.7759 54.7849 12.2368C55.2876 12.6977 55.5905 13.3366 55.629 14.0175C55.6394 14.1979 55.6962 14.3726 55.7938 14.5247C55.8915 14.6767 56.0267 14.801 56.1865 14.8855C56.3463 14.9699 56.5251 15.0117 56.7058 15.0068C56.8864 15.0019 57.0627 14.9505 57.2177 14.8575C57.3763 14.7642 57.5566 14.7142 57.7405 14.7125C57.9245 14.7109 58.1057 14.7576 58.2659 14.8479C58.4262 14.9383 58.5599 15.0692 58.6536 15.2276C58.7473 15.3859 58.7978 15.566 58.8 15.75C58.7987 15.9402 58.7445 16.1264 58.6436 16.2876C58.5412 16.4587 58.4898 16.6555 58.4952 16.8548C58.5006 17.0542 58.5626 17.2478 58.674 17.4132C58.7865 17.5788 58.9434 17.7094 59.1267 17.7898C59.31 17.8702 59.5124 17.8973 59.7104 17.8679C59.8558 17.8415 60.0052 17.8462 60.1487 17.8816C60.2922 17.917 60.4266 17.9822 60.5431 18.0731C60.6597 18.164 60.7557 18.2785 60.8249 18.4091C60.8942 18.5396 60.9351 18.6833 60.945 18.8308C60.9549 18.9783 60.9335 19.1262 60.8823 19.2648C60.8311 19.4034 60.7513 19.5297 60.6479 19.6354C60.5445 19.741 60.42 19.8236 60.2826 19.8779C60.1451 19.9321 59.9977 19.9567 59.85 19.95Z" fill="#FD3B3B"/>
<path d="M32.025 13.65H43.05C43.7944 13.6518 44.5154 13.3899 45.0852 12.9108C45.6549 12.4316 46.0365 11.7662 46.1623 11.0324C46.2882 10.2987 46.1501 9.54415 45.7726 8.90254C45.395 8.26094 44.8025 7.77377 44.1 7.52745C44.1 7.46865 44.1 7.40985 44.1 7.35C44.0964 6.9137 44.0028 6.48284 43.8252 6.08431C43.6477 5.68578 43.3898 5.32814 43.0678 5.03372C42.7458 4.73931 42.3666 4.51444 41.9537 4.37316C41.5409 4.23188 41.1034 4.17722 40.6686 4.2126C40.3017 3.15948 39.5735 2.27046 38.6132 1.70343C37.6529 1.1364 36.5227 0.928057 35.4234 1.1154C34.324 1.30273 33.3266 1.87363 32.6084 2.7267C31.8901 3.57977 31.4974 4.6598 31.5 5.775C31.4999 5.96139 31.5115 6.1476 31.5346 6.33255C30.6104 6.45639 29.7677 6.92697 29.1775 7.64894C28.5872 8.37091 28.2935 9.29026 28.3559 10.2207C28.4182 11.1512 28.832 12.0231 29.5133 12.6599C30.1946 13.2966 31.0924 13.6506 32.025 13.65ZM32.025 8.4C32.2307 8.40054 32.4344 8.4412 32.6245 8.5197C32.8257 8.60267 33.0478 8.62106 33.2599 8.57233C33.472 8.5236 33.6638 8.41015 33.8086 8.24767C33.9534 8.0852 34.0442 7.88174 34.0683 7.66543C34.0925 7.44911 34.0488 7.23065 33.9433 7.04025C33.7222 6.65494 33.604 6.21922 33.6 5.775C33.5975 5.09301 33.8613 4.437 34.3354 3.94668C34.8094 3.45637 35.4561 3.1705 36.1378 3.14997C36.8195 3.12944 37.4822 3.37586 37.9849 3.83676C38.4876 4.29766 38.7904 4.9366 38.829 5.6175C38.8393 5.79792 38.8961 5.9726 38.9938 6.12466C39.0914 6.27671 39.2267 6.40099 39.3864 6.48546C39.5462 6.56993 39.7251 6.61174 39.9057 6.60684C40.0864 6.60194 40.2627 6.5505 40.4176 6.4575C40.5765 6.36619 40.7564 6.31779 40.9397 6.31705C41.1229 6.31631 41.3032 6.36327 41.4629 6.4533C41.6225 6.54333 41.7559 6.67334 41.8501 6.83056C41.9443 6.98777 41.9959 7.16678 42 7.35C41.9986 7.54023 41.9445 7.72635 41.8435 7.8876C41.7412 8.05875 41.6897 8.25549 41.6951 8.45483C41.7005 8.65416 41.7625 8.84783 41.874 9.0132C41.9864 9.17883 42.1433 9.30936 42.3267 9.38979C42.51 9.47022 42.7123 9.49728 42.9103 9.46785C43.0558 9.44153 43.2051 9.44621 43.3486 9.48158C43.4921 9.51695 43.6265 9.58222 43.7431 9.67312C43.8596 9.76402 43.9556 9.87849 44.0249 10.0091C44.0942 10.1396 44.1351 10.2833 44.145 10.4308C44.1548 10.5783 44.1335 10.7262 44.0823 10.8648C44.0311 11.0034 43.9512 11.1297 43.8478 11.2354C43.7445 11.341 43.62 11.4236 43.4825 11.4779C43.345 11.5321 43.1976 11.5567 43.05 11.55H32.025C31.6073 11.55 31.2067 11.3841 30.9113 11.0887C30.6159 10.7933 30.45 10.3927 30.45 9.975C30.45 9.55728 30.6159 9.15668 30.9113 8.86131C31.2067 8.56594 31.6073 8.4 32.025 8.4Z" fill="#FD3B3B"/>
<path d="M61.95 60.9H52.3845C53.5377 59.7726 54.2869 58.2964 54.516 56.7H58.8C59.6354 56.7 60.4366 56.3681 61.0274 55.7774C61.6181 55.1866 61.95 54.3854 61.95 53.55V49.35C61.9482 48.5657 61.862 47.7838 61.6927 47.0179C61.152 44.7034 59.8472 42.6385 57.9888 41.1565C56.1304 39.6746 53.8269 38.862 51.45 38.85H51.0489L46.3102 29.3727C45.532 27.7989 44.3278 26.4751 42.8345 25.5518C41.3411 24.6285 39.6187 24.1428 37.863 24.15H24.822C23.1574 24.1517 21.5227 24.5928 20.0831 25.4287C18.6436 26.2647 17.4502 27.4658 16.6236 28.9107L10.9305 38.8678C8.25862 39.0288 5.74877 40.2029 3.91276 42.1507C2.07676 44.0985 1.05291 46.6733 1.05 49.35V54.6C1.05 55.157 1.27125 55.6911 1.66508 56.0849C2.0589 56.4788 2.59305 56.7 3.15 56.7H7.434C7.66305 58.2964 8.41225 59.7726 9.5655 60.9H1.05C0.771523 60.9 0.504451 61.0106 0.307538 61.2075C0.110625 61.4045 0 61.6715 0 61.95C0 62.2285 0.110625 62.4956 0.307538 62.6925C0.504451 62.8894 0.771523 63 1.05 63H61.95C62.2285 63 62.4955 62.8894 62.6925 62.6925C62.8894 62.4956 63 62.2285 63 61.95C63 61.6715 62.8894 61.4045 62.6925 61.2075C62.4955 61.0106 62.2285 60.9 61.95 60.9ZM59.85 53.55C59.85 53.8285 59.7394 54.0955 59.5425 54.2925C59.3455 54.4894 59.0785 54.6 58.8 54.6H54.516C54.4115 53.8719 54.1973 53.1639 53.8807 52.5H59.85V53.55ZM59.85 49.35V50.4H56.7V49.35C56.7 49.0715 56.8106 48.8044 57.0075 48.6075C57.2044 48.4106 57.4715 48.3 57.75 48.3H59.7786C59.8241 48.6482 59.848 48.9989 59.85 49.35ZM3.15 49.35C3.1525 47.1229 4.0383 44.9878 5.61307 43.4131C7.18783 41.8383 9.32295 40.9525 11.55 40.95C11.7347 40.9504 11.9162 40.902 12.0762 40.8098C12.2362 40.7177 12.3691 40.5849 12.4614 40.425L18.4464 29.9554C19.0885 28.8309 20.0163 27.896 21.1359 27.2453C22.2555 26.5946 23.5271 26.2513 24.822 26.25H37.863C39.2281 26.2441 40.5674 26.6216 41.7285 27.3394C42.8896 28.0572 43.8259 29.0866 44.4307 30.3103L49.4602 40.3693C49.5475 40.5439 49.6816 40.6907 49.8476 40.7932C50.0136 40.8958 50.2049 40.9501 50.4 40.95H51.45C53.1212 40.9593 54.7523 41.4627 56.1381 42.3969C57.5239 43.3311 58.6024 44.6543 59.2378 46.2H57.75C56.9146 46.2 56.1134 46.5319 55.5226 47.1226C54.9319 47.7134 54.6 48.5146 54.6 49.35V50.4H52.3845C51.0144 49.0541 49.1706 48.3 47.25 48.3C45.3294 48.3 43.4856 49.0541 42.1155 50.4H19.8345C18.4644 49.0541 16.6206 48.3 14.7 48.3C12.7794 48.3 10.9356 49.0541 9.5655 50.4H3.15V49.35ZM40.6193 52.5C40.3027 53.1639 40.0885 53.8719 39.984 54.6H21.966C21.8615 53.8719 21.6473 53.1639 21.3307 52.5H40.6193ZM7.434 54.6H3.15V52.5H8.06925C7.75269 53.1639 7.53851 53.8719 7.434 54.6ZM14.7 60.9C13.6616 60.9 12.6466 60.5921 11.7833 60.0152C10.9199 59.4383 10.247 58.6184 9.84963 57.6591C9.45227 56.6998 9.3483 55.6442 9.55088 54.6258C9.75345 53.6074 10.2535 52.6719 10.9877 51.9377C11.7219 51.2035 12.6574 50.7034 13.6758 50.5009C14.6942 50.2983 15.7498 50.4023 16.7091 50.7996C17.6684 51.197 18.4883 51.8699 19.0652 52.7333C19.6421 53.5966 19.95 54.6116 19.95 55.65C19.9483 57.0419 19.3947 58.3763 18.4105 59.3605C17.4263 60.3447 16.0919 60.8983 14.7 60.9ZM19.8345 60.9C20.9877 59.7726 21.737 58.2964 21.966 56.7H39.984C40.213 58.2964 40.9622 59.7726 42.1155 60.9H19.8345ZM47.25 60.9C46.2116 60.9 45.1966 60.5921 44.3333 60.0152C43.4699 59.4383 42.797 58.6184 42.3996 57.6591C42.0023 56.6998 41.8983 55.6442 42.1009 54.6258C42.3034 53.6074 42.8035 52.6719 43.5377 51.9377C44.2719 51.2035 45.2074 50.7034 46.2258 50.5009C47.2442 50.2983 48.2998 50.4023 49.2591 50.7996C50.2184 51.197 51.0383 51.8699 51.6152 52.7333C52.1921 53.5966 52.5 54.6116 52.5 55.65C52.4983 57.0419 51.9447 58.3763 50.9605 59.3605C49.9763 60.3447 48.6419 60.8983 47.25 60.9Z" fill="#FD3B3B"/>
</g>
<defs>
<clipPath id="clip0_8068_128">
<rect width="63" height="63" fill="white"/>
</clipPath>
</defs>
</svg>
